<?xml version="1.0" encoding="UTF-8"?>
<svg id="Layer_2" data-name="Layer 2" xmlns="http://www.w3.org/2000/svg" viewBox="0 0 420.78 444.75">
  <defs>
    <style>
      .cls-1 {
        font-size: 31.52px;
        letter-spacing: .21em;
      }

      .cls-1, .cls-2, .cls-3 {
        font-family: AdleryPro-Regular, 'Adlery Pro';
      }

      .cls-1, .cls-4 {
        fill: #fff;
      }

      .cls-2 {
        font-size: 33.46px;
        letter-spacing: .21em;
      }

      .cls-2, .cls-3, .cls-5, .cls-6 {
        fill: #231f20;
      }

      .cls-3 {
        font-size: 59.96px;
        letter-spacing: .21em;
      }

      .cls-5 {
        font-family: Skia-Condensed, Skia;
        font-size: 29px;
        font-variation-settings: 'wght' 1, 'wdth' 0;
      }

      .cls-7 {
        fill: #f6e6c9;
      }

      .cls-7, .cls-6, .cls-4, .cls-8 {
        stroke-width: 0px;
      }

      .cls-8 {
        fill: #681f0f;
      }
    </style>
  </defs>
  <g id="Design1">
    <rect class="cls-6" y="334.81" width="204.46" height="109.93"/>
    <g>
      <path class="cls-8" d="m235.31,206.11v-19.99h-8.69v26.98"/>
      <path class="cls-8" d="m235.31,94.5c-2.72-2.53-5.62-4.87-8.69-6.98v20.87h8.69v-13.88Z"/>
      <path class="cls-8" d="m218.29,218.1v-31.99h-9.63v36.17"/>
      <path class="cls-8" d="m218.29,82.51c-3.09-1.6-6.31-3-9.63-4.18v30.05h9.63v-25.88Z"/>
      <path class="cls-8" d="m182.84,226.71v-40.59h-9.52v40.01"/>
      <path class="cls-8" d="m182.84,73.9c-3.22,0-6.4.2-9.52.58v33.9h9.52v-34.48Z"/>
      <path class="cls-8" d="m200.33,224.72v-38.6h-9.15v40.14"/>
      <path class="cls-8" d="m200.33,75.89c-2.99-.69-6.04-1.21-9.15-1.54v34.03h9.15v-32.49Z"/>
      <path class="cls-8" d="m243.64,103.9v4.78h3.41c-1.08-1.64-2.21-3.24-3.41-4.78Z"/>
      <path class="cls-8" d="m243.64,197.01c2.65-3.41,5-7.06,7.05-10.9h-7.05v10.9Z"/>
      <path class="cls-8" d="m130.73,206.43v-20.32h-8.19v11.52c2.5,3.14,5.24,6.08,8.19,8.79"/>
      <path class="cls-8" d="m130.73,94.18c-2.95,2.71-5.69,5.65-8.19,8.79v5.41h8.19v-14.2Z"/>
      <path class="cls-8" d="m165,224.63v-38.51h-8.54v35.97"/>
      <path class="cls-8" d="m165,75.98c-2.91.69-5.76,1.54-8.54,2.55v29.85h8.54v-32.4Z"/>
      <path class="cls-8" d="m148.13,218.48v-32.36h-9.07v26.97"/>
      <path class="cls-8" d="m148.13,82.13c-3.16,1.59-6.18,3.4-9.07,5.39v20.86h9.07v-26.25Z"/>
      <g>
        <g>
          <path class="cls-6" d="m133.54,178.15c.18-.09.36-.17.57-.23,2.46-.78,3.94-1.91,4.63-4.45,0-.02.02-.04.02-.06.19-7.11,2.5-15.86,3.88-22.41.66-3.24,1.38-6.9,1.38-10.19s-.84-6.66-4.44-7.26c-.36-.36-.54-.6-1.08-.6-3,0-2.52,1.32-3.3,3.3-.48,1.26-.66,2.88-.9,4.26-.18,1.2-.72,2.46-1.02,3.66s-.42,2.52-.78,3.72c-.48,1.8-1.08,3.78-1.92,5.46-2.76,5.46-8.82,14.51-13.55,18.65-.9-.9-1.02-1.56-1.02-2.1,0-3.18,2.34-8.22,2.4-11.27,0-.54.06-1.02.18-1.56l-.06-.3c.6-2.34.6-5.04,1.38-7.74l-.06-.24.42-1.5c-.06-.24.06-.48.24-.66,0-.36-.06-.66-.06-1.02,0-2.4,1.68-3.36,1.68-4.68,0-.42-.18-1.44-.48-1.8,0-1.14.78-2.04.9-3.06.12-1.08.24-2.22.24-3.3,0-1.5-.48-4.86-1.56-5.94-1.5-2.4-3.66-3.78-6.66-3.78-1.38,0-1.08.96-1.14,1.74l-.18.36c-.12,1.86-.36,4.8-.72,6.78l-.36,3c-.24,1.5-.84,3.12-1.2,4.62-.6,2.46-1.02,4.92-1.5,7.38-1.26,6.6-2.7,13.25-2.7,20.03,0,3.96,1.32,11.09,6.54,11.09,3.18,0,6.6-4.68,8.46-6.84.42-.54.66-1.2,1.08-1.74,1.68-2.16,3.18-4.38,4.74-6.6.78-1.08,1.38-2.34,2.1-3.36.3-.42.66-.78.9-1.26-.18,2.82-.78,5.58-1.02,8.4.06.24.06.54.06.78,0,3.3-.3,4.02.9,7.26.18.54.3,1.2.6,1.68.54.84,1.02.6,1.62,1.08.19.33.47.56.79.71Z"/>
          <path class="cls-6" d="m175.74,171.39v.18c0,.06-.12.18-.18.18-.18,0-.24-.3-.18-.42-.3-.54-.6-1.14-.78-1.74-.12-.06-.42-.24-.24-.42-.06-.3-.54-1.32-.54-1.44.06-.18.12-.36.12-.54,0-.24-.18-.42-.3-.6l-.24-.12.18-.24c.12-.06.12-.12.12-.24s-.18-.18-.24-.18c-.48-.3-.54-1.38-.54-1.86,0-.72-.9-3.06-1.14-4.02-.18-.18-.3-.42-.36-.66l.12-.12.06-.06c0-.24-.12-.48-.12-.78s0-.6-.18-.84c-.72-.54-.78-.96-.78-1.8,0-.3-.24-.84-.54-.96-.84-1.62-1.14-3.42-1.92-5.1l-1.8-3.78c-.48-1.08-1.38-2.04-1.86-3.06-.18-.36-.42-1.74-.66-1.98-.24-.18-.54-.48-.78-.6.3-.78,4.08-3.36,5.04-3.9,2.76-1.5,7.14-6.72,7.92-9.89.3-1.32.42-2.94.42-4.26,0-2.94-1.62-5.7-4.02-7.32-.24-.6-.6-1.32-1.14-1.74-.78-.54-4.5-1.56-5.34-1.56-1.08,0-2.1.3-3.12.54-.66.42-1.38.72-2.04,1.14-2.1,1.5-3.36,3.54-4.98,5.46-.66.78-1.08,1.68-1.68,2.46-.3.42-.72.84-.96,1.26-.18-.78-.24-1.56-.18-2.34-.66-1.08-3-4.86-4.08-5.16-.24-.24-.78-.36-1.08-.36-.54,0-.96.3-1.08.3l-.06-.06c0-.12.36-.36.36-.6,0-.06-.12-.06-.18-.06-.58,0-1.12.08-1.65.16,2.1,8.13,2.53,16.43,1.76,24.89-.45,4.89-1.22,9.75-2.02,14.59-.69,4.18-1.85,8.28-2.61,12.44.5-.36,1.01-.87,1.23-1.16.42,0,5.04-1.14,5.22-1.32l.36-.42-.24-.42c-.24-.18-.36-.42-.36-.72,0-1.44.96-2.52,1.26-3.84.66-.54.78-2.04.96-2.76,1.74-2.46,2.16-11.87,2.04-15.05.24,0,1.26-.06,1.38-.3.06-.06.12-.06.18-.06.18,0,.48.24.66.3q.36.48.36,1.08c0,.42.24.84.18,1.26,1.2,2.82,2.22,5.7,3.48,8.46.84,1.86,1.62,3.72,2.28,5.64.42,1.32.72,2.76,1.14,4.08,1.02,3.54,2.1,7.14,3.3,10.61.66,1.98,1.74,4.38,3.48,5.7,1.2.9,2.82,1.38,4.32,1.38,2.46,0,3.42-2.28,3.66-4.5-.6,0-1.14-2.28-1.38-2.76Zm-16.55-36.82c-.78.54-1.38.42-2.28.36l-.24.18c-.3.24-.48.42-.72.66h-.42c-.12,0-.48.24-.36.42l-.66.06c-.54-.18-1.08-.36-1.56-.6v-.96c0-2.58.9-5.16.9-7.14.3-.84.66-1.74,1.14-2.46.9-1.44,1.2-3.06,1.98-4.5.42-.78,1.68-1.32,2.34-1.8,1.74-1.38,2.58-3,5.28-3,1.32,0,1.5.96,1.5,2.04,0,4.02-3.6,14.45-6.9,16.73Z"/>
          <path class="cls-6" d="m191.37,167.48c.42,1.32.72,2.76,1.14,4.08,1.02,3.54,2.1,7.14,3.3,10.61.12.36.26.74.41,1.12,1.87,1.29,4.52,1.15,6.16.15,1.25-.76,1.88-1.36,2.39-3.17,0-.03-.02-.05-.03-.08-.12-.06-.42-.24-.24-.42-.06-.3-.54-1.32-.54-1.44.06-.18.12-.36.12-.54,0-.24-.18-.42-.3-.6l-.24-.12.18-.24c.12-.06.12-.12.12-.24s-.18-.18-.24-.18c-.48-.3-.54-1.38-.54-1.86,0-.72-.9-3.06-1.14-4.02-.18-.18-.3-.42-.36-.66l.12-.12.06-.06c0-.24-.12-.48-.12-.78s0-.6-.18-.84c-.72-.54-.78-.96-.78-1.8,0-.3-.24-.84-.54-.96-.84-1.62-1.14-3.42-1.92-5.1l-1.8-3.78c-.48-1.08-1.38-2.04-1.86-3.06-.18-.36-.42-1.74-.66-1.98-.24-.18-.54-.48-.78-.6.3-.78,4.08-3.36,5.04-3.9,2.76-1.5,7.14-6.72,7.92-9.89.3-1.32.42-2.94.42-4.26,0-2.94-1.62-5.7-4.02-7.32-.24-.6-.6-1.32-1.14-1.74-.78-.54-4.5-1.56-5.34-1.56-1.08,0-2.1.3-3.12.54-.66.42-1.38.72-2.04,1.14-2.1,1.5-3.36,3.54-4.98,5.46-.66.78-1.08,1.68-1.68,2.46-.3.42-.72.84-.96,1.26-.18-.78-.24-1.56-.18-2.34-.66-1.08-3-4.86-4.08-5.16-.24-.24-.78-.36-1.08-.36-.54,0-.96.3-1.08.3l-.06-.06c0-.12.36-.36.36-.6,0-.06-.12-.06-.18-.06-.58,0-1.12.08-1.65.16,2.1,8.13,2.53,16.43,1.76,24.89-.39,4.26-1.62,10.34-2.3,14.56-.04,4.29,2.62,5.75,3.21,9.18.01,0,.61-1.03.62-1.03.02,0,.04,0,.06,0,.11-1.3.96-2.33,1.24-3.56.66-.54.78-2.04.96-2.76,1.74-2.46,2.16-11.87,2.04-15.05.24,0,1.26-.06,1.38-.3.06-.06.12-.06.18-.06.18,0,.48.24.66.3q.36.48.36,1.08c0,.42.24.84.18,1.26,1.2,2.82,2.22,5.7,3.48,8.46.84,1.86,1.62,3.72,2.28,5.64Zm-4.32-21.95l-.24.18c-.3.24-.48.42-.72.66h-.42c-.12,0-.48.24-.36.42l-.66.06c-.54-.18-1.08-.36-1.56-.6v-.96c0-2.58.9-5.16.9-7.14.3-.84.66-1.74,1.14-2.46.9-1.44,1.2-3.06,1.98-4.5.42-.78,1.68-1.32,2.34-1.8,1.74-1.38,2.58-3,5.28-3,1.32,0,1.5.96,1.5,2.04,0,4.02-3.6,14.45-6.9,16.73-.78.54-1.38.42-2.28.36Z"/>
          <path class="cls-6" d="m224.55,175.17c-1.02-1.2-1.44-2.94-2.52-4.02-1.08-2.76-.96-5.76-1.38-8.64-.06-.48-.3-1.14-.3-1.62,0-1.56.6-3.06.66-4.62.12-3,.48-6.06,1.08-8.99.18-.78.54-1.74.54-2.58-.12-.06-.42-.24-.54-.24-.18,0-.36,0-.54.12-1.62.3-3.3.66-4.92,1.02-1.56.3-3.84.12-5.52.24-1.44,1.68-2.82,3.66-4.02,5.52-1.26.96-2.88,2.58-3.66,3.96-1.14,1.98-5.88,10.31-8.04,11.51h-.06q.06,0,.06.06h-.12c-.3.24-1.02.66-1.38.66-.48,0-.6-.42-.6-.84l-.06-.12c.18-.9.6-1.62.84-2.46,5.04-4.92,8.04-11.81,11.93-17.63-.6,0-2.76,0-2.76-.84-.12-.06-.24-.18-.24-.36,0-.96,1.5-1.8,2.28-2.22,1.02.12,3.12-.12,3.96-.72.9-2.16,2.4-4.26,3.48-6.36.72-1.38,1.62-2.7,2.4-4.14.3-.6.54-1.5.9-2.04,1.32-1.92,3-3.6,4.38-5.46,2.1-2.82,4.62-5.88,6.12-9.06.3-.66.6-1.38.96-2.04.18-.3.78-.48,1.08-.54l.48.3c2.4,0,5.82,4.32,5.82,6.6,0,1.8-.78,5.28-1.2,7.14.24,1.5.6,3.36.6,4.86,0,1.68-1.44,5.04-1.44,6.96,1.14,0,2.04-.78,3.3-.84.54.12.84,1.44.84,1.92,0,1.38-2.64,1.8-3.54,2.16l-.9.96c-1.2.6-1.5,6.9-1.5,8.22,0,.42.12.9-.18,1.26-.24.78-.3,1.56-.3,2.34,0,2.94-.24,5.82-.24,8.75,0,2.58.9,4.5.9,6.66,0,.78-.36,2.52.36,3.06,0,1.2-.24,2.46-.42,3.66-.48.42-3,.72-3.66.72-1.62,0-2.46-.72-2.94-2.28Zm-10.91-32.62c1.26,0,2.46-.66,3.66-.66,2.22,0,4.02-.6,6.18-1.2.54-6.78,3.3-14.09,3.3-20.63,0-.48.06-.66-.3-1.02-.6.9-2.34,3.72-2.94,4.38-.42.48-.9.96-1.2,1.56-1.44,2.76-9.06,16.31-9.06,17.57h.36Z"/>
          <path class="cls-6" d="m263.2,154.57v-.06c0-.3-1.74-2.16-2.04-2.64-.54-.9-5.4-4.5-6.54-5.16-.96-.54-3-1.5-3.3-2.7l.12-.18c0-.3-.96-.84-1.08-1.56-1.68-1.32-2.7-2.46-2.7-4.8,0-.9.12-1.32.9-1.86.24-.36,1.74-1.38,2.22-1.74.9-2.82,4.02-3.66,6.66-3.66,1.14,0,5.22-.06,5.88.78l.6.06c.14.1.26.32.36.61.15-.35.28-.68.4-.97.43-1.06.81-2.13,1.16-3.21-.13-.28-.25-.52-.36-.68,0-.18-.12-.3-.48-.9,0-.3-1.08-1.38-1.32-1.74-.78-1.32-4.86-2.04-6.36-2.04l-.42.12c-.6-.06-1.14.12-1.74.12-3.66,0-7.02,1.62-9.83,3.72-1.86,1.38-3.24,2.04-4.26,4.38-.36-.06-.72,1.14-.72,1.5,0,.06.06.3.12.36l.12-.12c0,.3,0,.48-.06.6.3,1.38-.66.18-.84,1.5l-.12-.18c-.18,0-.24.48-.24.66,0,.36.36,2.52.72,2.52.18,0,.3-.24.36-.42v.12c0,1.26.12,2.7.36,3.96l-.12.66c.18,1.14,2.4,4.08,3.12,5.22l.42.24c.84.84,2.16,1.5,3.36,2.16,1.98,1.08,3.3,3.18,4.98,4.62,1.14,1.02,2.16,1.86,2.88,3.24,1.26,1.14,1.8,2.88,1.8,4.5,0,2.82-1.74,5.04-3.18,7.2-.9,1.38-.9,3-2.58,3.9-2.1,1.14-4.44,1.86-6.78,2.28-.18-.06-.42-.12-.66-.12-.12,0-1.92.6-2.16.66-1.08-.3-2.28-.42-3.24-1.02h-.24c-2.64,0-3-2.04-3-4.14,0-4.5,3.06-4.32,3.54-5.7.12-.42,1.2-.48,1.38-.96.36-1.02,1.14-.72,1.5-1.32,0-1.02-1.92-1.32-2.64-1.32-4.38,0-6.3,7.5-6.3,10.91,0,5.16,3.3,9.12,8.4,10.13,2.46.48,5.28.48,7.8.48,1.2,0,2.46-.6,3.66-.78,1.74-.96,3.36-.78,5.4-2.1,4.8-3.12,6.84-4.44,8.22-10.13.06-.18.12-.36.06-.6.18-.54.24-1.08.42-1.62-.18-.12-.18-.36-.18-.54,0-.6.12-1.14.06-1.74l.06-.12c0-.42-.24-.54-.12-1.14-.06-.18-.06-.3-.06-.48,0-.12.3-.06.36-.3-.24-1.2-.84-4.44-1.5-5.28-.54-.66-2.04-2.46-2.22-3.18Z"/>
          <path class="cls-6" d="m297.29,167.13c-1.69,1.8-3.61,3.36-5.57,4.23-1.02.48-3,2.04-4.14,2.04-.72,0-1.32-.72-1.92-1.08l-.54-.24c-3.54-.66-5.28-4.32-5.94-7.56-.24-1.14-.12-2.46-.12-3.6,0-1.08-.12-2.16-.12-3.18,0-.9.06-1.8.06-2.7,0-1.32.54-2.7.84-3.96.18-.66.18-1.26.24-1.98.48-4.26,3.66-11.03,6.12-14.57.06-.36.18-.66.3-.96,1.26-1.26,2.46-3.72,3.54-5.22,1.26-.78,2.58-3.18,4.08-3.18.6,0,1.2.18,1.86.18,1.32,0,4.5,1.5,4.5,3.06,0,1.92-4.5,1.26-4.5,3.9,0,1.32,1.02,4.74,2.7,4.74h.18c.66-.36,1.68-.42,2.1-1.14-.06-.12-.06-.24-.06-.36,0-1.8,2.16-4.5,2.16-7.2,0-1.14-.3-2.34-1.02-3.24-.6-.78-1.38-.84-2.28-1.08-2.04-.6-2.7-1.26-5.28-1.68-.72-.12-1.44-.24-2.22-.24-.66,0-1.32.18-1.98.18-2.76,0-5.16,1.02-7.5,2.4-9.71,5.7-13.85,21.71-13.85,32.32,0,6,1.02,12.89,6.18,16.79,2.1,1.56,5.76,3.18,8.4,3.18,3.84,0,6-1.02,9.06-3.24.48-.36.96-.78,1.5-1.14,1.77-1.12,3.02-2.19,4.38-3.77.05-.15.08-.3.12-.45-.5-.33-.94-.77-1.27-1.27Z"/>
          <path class="cls-6" d="m61.13,171.71c-1.57,1.36-3.23,2.51-4.91,3.26-1.32.62-3.87,2.63-5.34,2.63-.93,0-1.7-.93-2.48-1.39l-.7-.31c-4.57-.85-6.81-5.57-7.66-9.75-.31-1.47-.15-3.17-.15-4.64,0-1.39-.15-2.79-.15-4.1,0-1.16.08-2.32.08-3.48,0-1.7.7-3.48,1.08-5.11.23-.85.23-1.62.31-2.55.62-5.49,4.72-14.24,7.89-18.81.08-.47.23-.85.39-1.24,1.62-1.63,3.17-4.8,4.57-6.73,1.62-1.01,3.33-4.1,5.26-4.1.77,0,1.55.23,2.4.23,1.7,0,5.8,1.93,5.8,3.95,0,2.48-5.8,1.63-5.8,5.03,0,1.7,1.32,6.11,3.48,6.11h.23c.85-.46,2.17-.54,2.71-1.47-.08-.15-.08-.31-.08-.46,0-2.32,2.79-5.8,2.79-9.29,0-1.47-.39-3.02-1.32-4.18-.77-1.01-1.78-1.08-2.94-1.39-2.63-.77-3.48-1.63-6.81-2.17-.93-.15-1.86-.31-2.86-.31-.85,0-1.7.23-2.55.23-3.56,0-6.66,1.32-9.67,3.1-12.54,7.35-17.88,28.02-17.88,41.72,0,7.74,1.32,16.64,7.97,21.67,2.71,2.01,7.43,4.1,10.83,4.1,4.95,0,7.74-1.32,11.69-4.18.47-.35.96-.75,1.46-1.12.66-.98,1.2-2.05,1.85-3.05.18-.73.35-1.45.52-2.18Z"/>
          <path class="cls-6" d="m337.54,129.23c-.3-.78-.54-1.56-.96-2.34-1.14-2.16-5.22-4.68-7.5-5.4,0-.06.06-.12.06-.18,0-.96-3.66-1.68-4.44-1.68-.9,0-1.74-.6-2.7-.6-1.02,0-2.52.36-3.66,1.14-2.76.96-3.72,2.52-3.72,5.46,0,.78,0,1.68.18,2.4-2.16.78-4.14,2.28-5.76,3.96-.48,0-.84.18-1.32.36-3.12,3.48-6.48,12.17-7.32,16.73-.54,2.94-.9,6.24-.9,9.24,0,1.39.33,3.48.76,5.35.15.27.22.58.29.88.04.2.08.4.12.61.01.07.03.14.05.22.13.45.27.87.41,1.23,2.76,7.14,8.04,13.49,16.25,13.49.48,0,.96-.12,1.32-.36,1.68,0,3.3-.54,4.5-1.68.78-.12,2.34-1.14,2.7-1.8,1.44-1.26,4.08-4.98,5.04-6.78.48-.96,2.64-4.98,2.7-5.82.18-.24.36-.66.24-.84.84-1.5,1.44-3.24,2.1-4.8.05.02.11.04.17.07.04-.11.09-.22.14-.33v-.64c0-.48.13-.93.34-1.34-.01,0-.03-.01-.05-.02l1.02-4.62c.18-.9.6-1.74.66-2.64.9-1.38,1.2-10.37,1.2-12.47,0-2.34-1.02-4.62-1.92-6.78Zm-3.19,22.44c-.04,2.66-.55,5.28-1.71,7.73-.15.32-.34.63-.55.9-.47,1.2-1,2.38-1.45,3.53-1.56,3.84-4.98,12.11-10.07,12.11-2.64,0-3.42-2.28-3.78-2.28-3.18-3.78-4.08-8.7-4.08-13.49,0-3.84.9-7.44,1.8-11.15.3-1.26.54-2.82,1.08-4.02,1.44-3.06,2.28-5.76,3.12-9.06,0,.02.02.05.02.07.97-3.2,2.81-6.1,5.47-8.35.07-.59.11-1.1.15-1.32.3-1.38,1.62-3.36,3.18-3.36.18,0,.54.06.66.12.18.12.3.36.36.54.9,1.68,3.36,1.92,4.56,3.36.3.36.6.96,1.02,1.2,1.92,2.88,1.98,8.28,1.98,11.57,0,4.13-.95,7.94-1.75,11.89Z"/>
        </g>
        <text class="cls-3" transform="translate(62.43 168.11)"><tspan x="0" y="0">H</tspan></text>
      </g>
      <path class="cls-8" d="m119.32,108.69c13.6-20.72,37.02-34.41,63.66-34.41s50.06,13.69,63.66,34.41h5.22c-14.18-23.18-39.72-38.65-68.88-38.65s-54.7,15.47-68.88,38.65h5.22Z"/>
      <path class="cls-8" d="m182.97,231.4c31.88,0,59.38-18.39,72.49-45.23l-5.15-.06c-12.79,24.04-38.21,40.36-67.34,40.36"/>
      <path class="cls-8" d="m182.97,226.47c-29.13,0-54.42-16.37-67.21-40.41h-5.33c13.1,26.84,40.66,45.34,72.54,45.34"/>
      <g>
        <path class="cls-6" d="m137.08,226.88c-.25.33-.55.56-.92.7-.36.14-.77.17-1.22.1-.4-.07-.79-.19-1.18-.38-.39-.19-.81-.45-1.25-.77-.32-.24-.65-.5-.99-.76-.33-.27-.52-.42-.56-.45.48-.62.93-1.21,1.35-1.77.42-.56.82-1.09,1.2-1.6.72-.96,1.29-1.73,1.7-2.3.41-.57.63-.86.64-.89.05.03.24.16.56.38.33.22.64.45.94.67.34.25.63.51.88.76s.45.5.58.72c.21.34.32.69.32,1.03,0,.35-.11.68-.35,1.01-.25.34-.58.56-.99.66-.41.1-.79.1-1.13-.01l-.04.05c.21.19.39.41.54.65.15.25.24.51.28.79.04.25.02.48-.03.71-.06.22-.18.46-.36.71Zm-.86-.6c.13-.17.21-.34.25-.52s.05-.37.02-.58c-.03-.2-.11-.4-.26-.62-.14-.21-.33-.41-.56-.58-.18-.14-.33-.25-.45-.33-.12-.08-.19-.14-.23-.16l.36-.65c.25.18.48.31.71.39.22.09.45.13.67.14.21,0,.42-.04.62-.12.2-.09.38-.22.52-.42.15-.2.23-.41.24-.63s-.04-.44-.14-.65c-.09-.18-.23-.36-.41-.55-.18-.19-.4-.38-.63-.56-.15-.12-.3-.22-.43-.31-.13-.09-.22-.15-.25-.18-.37.47-.75.98-1.16,1.51-.4.54-.7.93-.88,1.17-.42.56-.84,1.13-1.26,1.71-.42.57-.65.88-.68.92.06.05.15.12.25.21s.21.17.31.24c.38.28.74.52,1.09.73.35.2.69.32,1,.37.26.04.5,0,.72-.08.22-.09.42-.24.58-.46Z"/>
        <path class="cls-6" d="m143.64,227.19c-.22-.07-.58-.15-1.06-.24-.49-.09-1.07-.16-1.73-.22-.02.04-.13.21-.32.53-.19.31-.36.61-.53.88-.25.42-.53.91-.86,1.49-.33.58-.51.9-.55.96l-.84-.49c.04-.06.15-.26.36-.59.2-.33.55-.9,1.02-1.71.19-.33.46-.79.81-1.38.34-.59.67-1.15.97-1.68l.82.48-.47.8h0c.53.02,1.04.05,1.53.12.49.06.86.13,1.13.21l-.28.84Z"/>
        <path class="cls-6" d="m147.71,231.39c-.44.92-.8,1.66-1.08,2.24-.28.57-.43.88-.45.93-.04-.01-.22-.08-.54-.21-.32-.12-.72-.3-1.2-.53-.3-.14-.59-.32-.87-.52-.28-.2-.51-.41-.68-.62-.23-.28-.38-.58-.45-.9-.07-.32-.02-.65.13-.98.17-.35.42-.6.76-.76.34-.15.74-.22,1.2-.19.29.02.65.08,1.09.19.44.11.92.27,1.46.48.12-.3.16-.57.12-.81-.03-.24-.15-.47-.34-.68-.13-.14-.29-.28-.48-.4-.19-.12-.41-.25-.68-.38-.17-.08-.31-.14-.43-.19-.12-.05-.28-.11-.49-.2l.44-.69c.06.02.17.07.34.14.17.07.4.17.68.31.44.21.8.44,1.1.69.3.25.51.54.64.85.12.29.16.61.14.94-.03.33-.17.77-.43,1.31Zm-1.49.93c.06-.13.14-.28.23-.48s.2-.41.31-.67c-.17-.07-.47-.18-.9-.31-.43-.14-.82-.22-1.14-.25-.24-.02-.48,0-.72.09-.24.08-.41.23-.52.46-.12.25-.15.49-.09.71.06.22.19.43.39.62.15.15.33.29.54.42.21.13.43.26.68.37.07.04.17.08.27.12.11.05.22.1.34.15.01-.03.07-.15.18-.37.11-.22.25-.51.42-.88Z"/>
        <path class="cls-6" d="m152.83,237.11s-.34-.13-.97-.37c-.63-.24-1.09-.41-1.39-.53-.38-.14-.85-.32-1.39-.52-.54-.2-.83-.31-.85-.32v-.61c.58-.34,1.33-.81,2.27-1.39.94-.58,1.9-1.17,2.88-1.78h0c-.16-.08-.33-.14-.5-.21-.17-.07-.33-.13-.49-.19-.37-.14-.84-.31-1.41-.52-.57-.21-.87-.32-.9-.33l.27-.72s.35.13.94.36c.59.22.95.36,1.09.41.27.1.69.26,1.25.47.57.21.87.33.92.34l.09.65c-.96.57-2.01,1.21-3.14,1.91-1.13.71-1.79,1.12-1.98,1.23h0c.15.07.34.14.57.23s.49.19.76.29c.77.29,1.34.5,1.69.63.35.13.54.19.57.2l-.28.74Z"/>
        <path class="cls-6" d="m155.56,237.99l-.93-.29c.02-.06.15-.44.37-1.15.23-.71.41-1.29.55-1.75.13-.4.26-.85.41-1.33.15-.48.32-1.05.51-1.71l.93.29c-.18.56-.35,1.09-.51,1.58-.16.49-.3.92-.41,1.31-.28.91-.5,1.64-.67,2.2-.16.55-.24.84-.25.86Zm2.25-7.06l-1.03-.32.31-1.01,1.03.32-.31,1.01Z"/>
        <path class="cls-6" d="m158.98,238.95l-.94-.25s.18-.62.48-1.73c.3-1.11.55-2.03.74-2.76.13-.47.28-1.07.47-1.78.19-.72.4-1.53.62-2.43l.94.25c-.17.61-.36,1.31-.58,2.11-.22.8-.4,1.48-.54,2.03-.32,1.2-.59,2.25-.82,3.15-.23.9-.35,1.37-.36,1.42Z"/>
        <path class="cls-6" d="m162.45,239.78l-.95-.21c.02-.06.11-.46.28-1.18.17-.72.31-1.32.41-1.79.09-.41.19-.87.3-1.36.11-.49.23-1.07.37-1.74l.95.21c-.14.57-.26,1.11-.38,1.61s-.22.95-.31,1.34c-.21.93-.37,1.68-.49,2.25-.12.57-.18.86-.18.87Zm1.68-7.22l-1.06-.24.23-1.03,1.06.24-.23,1.03Z"/>
        <path class="cls-6" d="m169.77,237.57c-.17,1-.31,1.82-.42,2.45-.11.63-.17.97-.18,1.02-.04,0-.23-.02-.57-.05-.34-.03-.77-.09-1.3-.18-.33-.05-.66-.14-.98-.26-.33-.12-.6-.25-.82-.41-.3-.2-.53-.45-.68-.74-.16-.29-.2-.62-.14-.98.06-.38.24-.7.52-.94.28-.24.65-.41,1.1-.52.28-.07.65-.1,1.1-.12.45-.01.96,0,1.53.05.03-.32,0-.59-.11-.82-.1-.22-.27-.41-.51-.56-.17-.1-.35-.19-.57-.25-.21-.07-.47-.12-.76-.17-.18-.03-.34-.05-.47-.07-.13-.01-.3-.03-.52-.06l.23-.79c.06,0,.18.02.36.04.18.02.43.05.74.11.48.08.89.2,1.25.36.36.16.64.37.85.64.2.25.33.54.39.87.07.33.05.79-.05,1.37Zm-1.17,1.31c.02-.14.05-.31.09-.52.04-.21.07-.45.12-.73-.18-.02-.5-.04-.95-.05-.45-.01-.84.02-1.17.08-.24.05-.46.14-.67.28-.2.14-.33.34-.37.59-.05.27,0,.51.11.7.12.19.3.35.55.49.19.1.4.19.63.26.24.07.49.13.75.17.08.01.18.03.3.04.12.02.24.03.37.05,0-.03.03-.16.07-.4.04-.24.1-.56.16-.96Z"/>
        <path class="cls-6" d="m176.82,241.83l-.97-.09c.01-.11.05-.49.12-1.13.07-.64.1-1.04.12-1.19.02-.21.05-.53.08-.94.04-.41.06-.72.07-.91.03-.47-.03-.81-.18-1.03-.15-.22-.43-.35-.84-.39-.25-.02-.56.02-.94.14-.38.11-.77.27-1.17.46,0,.04-.03.29-.07.73-.04.44-.08.84-.12,1.21-.04.47-.09,1.04-.14,1.71-.05.67-.08,1.02-.08,1.05l-.97-.09s.03-.28.08-.75c.05-.47.12-1.17.21-2.1.04-.43.09-.93.14-1.51.05-.58.1-1.19.15-1.84l.95.09-.07.7h0c.6-.26,1.1-.44,1.49-.54.39-.09.72-.13.97-.1.52.05.93.25,1.21.61.29.36.4.82.35,1.39-.05.51-.09.96-.13,1.33-.04.37-.07.67-.09.91-.03.37-.07.84-.11,1.39-.04.56-.06.85-.07.88Z"/>
        <path class="cls-6" d="m187.1,239.68c0,.42-.09.79-.29,1.11s-.46.58-.8.78c-.31.18-.66.32-1.05.42-.4.1-.84.15-1.32.15-.26,0-.53,0-.82-.02-.28-.01-.44-.02-.49-.02l-.06-.88c.06,0,.22.02.48.04.26.02.57.03.93.02.22,0,.5-.03.84-.09s.61-.14.79-.23c.24-.12.42-.27.55-.44.13-.17.19-.38.19-.64,0-.27-.07-.51-.2-.7-.13-.19-.35-.37-.65-.54-.19-.11-.44-.24-.75-.38-.31-.14-.59-.28-.83-.43-.42-.25-.72-.52-.9-.82-.18-.3-.27-.63-.28-1,0-.38.07-.7.23-.98.16-.28.37-.52.62-.72.26-.2.58-.35.96-.45.38-.1.8-.16,1.26-.16.25,0,.51,0,.77.01s.41.02.45.02l.1.89s-.19-.02-.45-.04c-.26-.02-.59-.03-.97-.03-.23,0-.47.03-.71.08-.24.05-.46.14-.64.24-.16.1-.3.23-.41.4-.11.17-.17.37-.17.59,0,.2.06.39.19.58.12.19.35.37.69.57.17.1.39.22.67.35.28.13.55.27.82.42.41.24.72.51.93.82.21.31.32.67.32,1.07Z"/>
        <path class="cls-6" d="m192.65,240.89l-.06.79s-.1.01-.21.03-.21.02-.29.03c-.84.06-1.48-.07-1.94-.39-.45-.32-.71-.84-.75-1.56-.03-.45-.06-.94-.09-1.46s-.07-1.16-.12-1.93l-1.03.07-.05-.72,1.09-.08-.1-1.45.89-.06.1,1.45,2.19-.15.05.72-2.19.15c0,.09.02.34.04.77.02.43.04.74.06.94.01.17.03.38.04.63.02.25.04.55.06.89.04.53.21.91.51,1.12.3.22.75.3,1.35.26.07,0,.16-.01.26-.02.1,0,.17-.01.2-.02Z"/>
        <path class="cls-6" d="m198.34,237.45c.13,1.01.23,1.83.31,2.46.08.63.12.98.13,1.02-.04,0-.23.05-.56.12-.33.07-.77.14-1.3.21-.33.04-.67.06-1.02.04-.35-.02-.65-.07-.91-.15-.34-.11-.63-.28-.87-.51-.23-.23-.38-.53-.42-.9-.05-.39.03-.74.23-1.05.2-.31.5-.58.9-.81.25-.14.59-.29,1.02-.43.43-.14.92-.28,1.48-.39-.06-.31-.18-.56-.34-.75-.16-.19-.38-.31-.65-.39-.19-.05-.39-.08-.62-.08-.22,0-.48.02-.77.05-.18.02-.34.05-.46.07-.13.02-.3.06-.52.1v-.82c.05-.01.17-.03.35-.07.18-.03.43-.07.74-.11.48-.06.91-.07,1.3-.02.39.05.72.17,1,.36.26.18.47.42.62.71.16.3.27.74.35,1.33Zm-.74,1.59c-.02-.14-.04-.31-.07-.52-.03-.21-.06-.45-.1-.73-.18.03-.49.11-.92.23-.44.12-.8.26-1.09.42-.22.11-.4.27-.56.46-.16.19-.22.42-.18.67.04.28.14.49.31.64.17.15.39.25.66.31.21.04.44.07.68.06.25,0,.5-.02.77-.05.08-.01.18-.03.3-.04.12-.02.24-.04.37-.06,0-.03-.02-.16-.05-.4-.03-.24-.07-.56-.12-.97Z"/>
        <path class="cls-6" d="m202.26,240.32l-.95.19c-.01-.07-.11-.62-.31-1.63-.2-1.01-.4-2.05-.62-3.11-.09-.45-.21-1.03-.35-1.72-.14-.69-.31-1.48-.5-2.38l.95-.19c.13.71.29,1.54.48,2.48.19.94.3,1.5.33,1.68.08.41.26,1.28.54,2.6.27,1.32.42,2.01.43,2.08Zm4.29-.99l-.47.64c-1.07-.72-2.02-1.35-2.85-1.88s-1.29-.82-1.38-.88h0c.08-.12.41-.63,1.01-1.55.59-.92,1.07-1.67,1.44-2.25l.7.49c-.39.56-.79,1.15-1.21,1.76-.42.62-.68,1-.79,1.16h0c1.43,1.01,2.61,1.84,3.55,2.51Z"/>
        <path class="cls-6" d="m211.85,234.52l-4.28,1.2c.12.42.32.78.59,1.08.27.3.62.51,1.04.64.27.08.56.12.87.11s.67-.07,1.08-.19c.22-.06.43-.13.61-.19.18-.06.3-.1.34-.12l.11.82s-.13.05-.31.11c-.18.06-.38.12-.62.19-.63.18-1.2.25-1.72.22-.51-.03-.96-.15-1.34-.35-.32-.17-.63-.42-.91-.74s-.49-.71-.62-1.17c-.13-.45-.17-.87-.14-1.28s.14-.79.32-1.18c.16-.33.39-.62.69-.87.3-.24.64-.42,1.01-.52.37-.1.71-.14,1.02-.11.32.03.61.13.88.3.3.19.57.45.79.78.23.33.41.76.56,1.28Zm-1.1-.4c-.2-.47-.48-.81-.82-1.01-.35-.2-.74-.24-1.18-.12-.44.12-.77.37-.99.73-.22.36-.31.8-.29,1.32l3.29-.92Z"/>
        <path class="cls-6" d="m219.48,235.28l-.91.34c-.04-.12-.17-.46-.38-1.04-.21-.58-.35-.96-.42-1.14-.08-.2-.19-.49-.34-.88s-.26-.67-.33-.85c-.18-.44-.38-.72-.61-.85-.23-.13-.54-.13-.93.02-.22.08-.47.25-.76.51-.29.26-.58.57-.88.94l1.69,4.41-.91.34c-.05-.15-.27-.76-.67-1.81-.39-1.06-.72-1.93-.97-2.61-.17-.44-.38-1.01-.64-1.68s-.56-1.45-.9-2.32l.91-.34,1.21,3.28h0c.43-.51.8-.89,1.1-1.14.3-.25.58-.42.83-.52.49-.19.94-.18,1.36.02.41.2.72.56.92,1.1.18.48.34.9.46,1.25.13.35.23.64.31.86.13.35.29.75.46,1.2.18.45.3.76.37.93Z"/>
        <path class="cls-6" d="m225.5,228.96c.21.42.34.87.38,1.33s-.01.91-.16,1.32c-.13.35-.31.66-.54.93-.23.27-.54.5-.91.68-.35.18-.71.28-1.08.32-.37.03-.73,0-1.09-.11-.41-.13-.79-.35-1.14-.67-.35-.32-.63-.69-.85-1.13-.21-.42-.34-.84-.39-1.26-.05-.42,0-.84.13-1.26.12-.38.3-.72.56-1.02.26-.3.57-.54.93-.72.38-.19.76-.3,1.13-.33.37-.03.74.02,1.11.15.42.15.79.37,1.11.66.32.29.58.66.8,1.09Zm-.86.48c-.17-.34-.4-.65-.67-.92-.27-.27-.59-.46-.93-.56-.21-.07-.44-.09-.67-.07-.23.02-.46.09-.67.19-.25.13-.45.28-.6.45s-.26.39-.34.64c-.09.29-.12.62-.08.99s.15.71.31,1.04c.19.37.42.69.69.94.27.26.59.43.96.54.21.06.42.07.64.05.22-.03.44-.09.64-.2.23-.12.43-.26.58-.44.16-.18.28-.38.35-.61.1-.32.13-.65.09-1.01-.04-.35-.14-.7-.31-1.03Z"/>
        <path class="cls-6" d="m233.11,227.77l-.78.52-.39-.59h0c-.14.31-.33.67-.57,1.08-.25.4-.54.72-.89.94-.47.31-.93.42-1.38.31-.45-.1-.84-.41-1.18-.91-.18-.27-.39-.6-.64-.98-.24-.38-.42-.66-.54-.83-.21-.31-.46-.69-.77-1.14-.31-.45-.48-.71-.52-.76l.81-.53s.19.29.48.74c.29.45.52.81.7,1.08.16.24.35.53.59.88.24.35.4.6.5.75.27.4.54.65.8.75.26.1.54.05.83-.14.3-.2.58-.5.84-.91.26-.4.43-.72.52-.96-.03-.04-.15-.23-.37-.57-.22-.34-.49-.76-.83-1.26-.24-.36-.53-.79-.87-1.28s-.52-.76-.55-.81l.81-.53c.04.06.16.25.37.58s.57.89,1.09,1.68c.29.44.55.83.77,1.16.22.33.62.92,1.19,1.77Z"/>
        <path class="cls-6" d="m236.78,222.43c.2.23.32.48.36.76.04.28.02.55-.07.82-.09.28-.24.56-.45.84-.21.28-.47.56-.79.83-.15.13-.32.26-.49.38s-.28.2-.3.21l-.55-.59s.15-.1.35-.25c.2-.15.4-.3.58-.46.11-.09.24-.22.4-.39.16-.17.27-.32.34-.47.1-.2.14-.38.13-.55,0-.16-.07-.32-.19-.46-.11-.13-.23-.2-.36-.23-.13-.02-.29-.02-.47,0-.2.02-.44.08-.74.17-.3.09-.56.15-.78.19-.32.05-.61.04-.87-.05-.26-.08-.49-.24-.68-.47-.2-.23-.31-.49-.34-.78-.03-.29.01-.58.13-.88.1-.26.25-.5.44-.72.2-.22.4-.42.61-.6.19-.16.35-.29.48-.39.13-.1.2-.16.22-.17l.58.58s-.12.09-.3.23c-.18.13-.37.29-.58.46-.14.12-.27.25-.38.39-.11.14-.19.27-.24.39-.08.18-.1.35-.08.49.02.15.08.27.15.36.11.12.24.2.4.22.16.02.32.02.48-.01.19-.03.44-.09.75-.18.31-.09.54-.14.69-.16.34-.05.63-.04.89.03.26.07.49.22.68.45Z"/>
        <path class="cls-6" d="m240.42,216.35l-2.98,3.29c.32.29.68.49,1.07.6.39.11.8.1,1.22-.01.27-.07.54-.2.8-.37.26-.17.53-.42.82-.73.16-.17.3-.34.42-.49s.2-.25.22-.28l.53.63s-.09.11-.2.26c-.12.14-.26.31-.43.49-.44.49-.89.85-1.34,1.1-.45.25-.89.38-1.32.41-.36.03-.75-.02-1.17-.14-.41-.12-.8-.34-1.15-.66-.35-.31-.61-.65-.8-1-.19-.36-.31-.75-.36-1.17-.04-.37,0-.73.13-1.1.13-.37.32-.69.58-.98.26-.28.53-.49.81-.64.28-.14.58-.21.9-.22.36,0,.72.08,1.09.24.37.16.75.42,1.15.78Zm-1.15.24c-.42-.29-.83-.43-1.24-.42-.4.01-.76.19-1.07.53-.31.34-.46.72-.44,1.15.01.42.16.85.45,1.27l2.29-2.53Z"/>
      </g>
    </g>
    <text class="cls-5" transform="translate(96.69 23.98)"><tspan x="0" y="0">Logo</tspan></text>
    <path class="cls-4" d="m127.94,415.14v-10.51h-4.57v14.18"/>
    <path class="cls-4" d="m127.94,356.48c-1.43-1.33-2.96-2.56-4.57-3.67v10.97h4.57v-7.3Z"/>
    <path class="cls-4" d="m119,421.45v-16.81h-5.06v19.01"/>
    <path class="cls-4" d="m119,350.17c-1.63-.84-3.32-1.58-5.06-2.2v15.8h5.06v-13.6Z"/>
    <path class="cls-4" d="m100.37,425.97v-21.34h-5v21.03"/>
    <path class="cls-4" d="m100.37,345.65c-1.69,0-3.36.11-5,.31v17.82h5v-18.12Z"/>
    <path class="cls-4" d="m109.56,424.92v-20.29h-4.81v21.1"/>
    <path class="cls-4" d="m109.56,346.7c-1.57-.36-3.18-.63-4.81-.81v17.89h4.81v-17.08Z"/>
    <path class="cls-4" d="m132.32,361.42v2.51h1.79c-.57-.86-1.16-1.7-1.79-2.51Z"/>
    <path class="cls-4" d="m132.32,410.36c1.39-1.79,2.63-3.71,3.71-5.73h-3.71v5.73Z"/>
    <path class="cls-4" d="m72.98,415.31v-10.68h-4.3v6.06c1.31,1.65,2.75,3.2,4.3,4.62"/>
    <path class="cls-4" d="m72.98,356.31c-1.55,1.43-2.99,2.97-4.3,4.62v2.84h4.3v-7.47Z"/>
    <path class="cls-4" d="m90.99,424.88v-20.24h-4.49v18.9"/>
    <path class="cls-4" d="m90.99,346.74c-1.53.36-3.03.81-4.49,1.34v15.69h4.49v-17.03Z"/>
    <path class="cls-4" d="m82.12,421.64v-17.01h-4.77v14.18"/>
    <path class="cls-4" d="m82.12,349.98c-1.66.84-3.25,1.79-4.77,2.83v10.96h4.77v-13.8Z"/>
    <g>
      <g>
        <path class="cls-4" d="m74.46,400.45c.09-.05.19-.09.3-.12,1.29-.41,2.07-1,2.43-2.34,0-.01,0-.02.01-.03.1-3.73,1.31-8.34,2.04-11.78.35-1.7.72-3.62.72-5.36s-.44-3.5-2.33-3.81c-.19-.19-.28-.32-.57-.32-1.58,0-1.32.69-1.73,1.73-.25.66-.35,1.51-.47,2.24-.09.63-.38,1.29-.54,1.92s-.22,1.32-.41,1.95c-.25.95-.57,1.99-1.01,2.87-1.45,2.87-4.63,7.63-7.12,9.8-.47-.47-.54-.82-.54-1.1,0-1.67,1.23-4.32,1.26-5.93,0-.28.03-.54.09-.82l-.03-.16c.32-1.23.32-2.65.73-4.07l-.03-.13.22-.79c-.03-.13.03-.25.13-.35,0-.19-.03-.35-.03-.54,0-1.26.88-1.77.88-2.46,0-.22-.09-.76-.25-.95,0-.6.41-1.07.47-1.61.06-.57.13-1.17.13-1.73,0-.79-.25-2.55-.82-3.12-.79-1.26-1.92-1.99-3.5-1.99-.72,0-.57.5-.6.91l-.09.19c-.06.98-.19,2.52-.38,3.56l-.19,1.58c-.13.79-.44,1.64-.63,2.43-.32,1.29-.54,2.58-.79,3.88-.66,3.47-1.42,6.97-1.42,10.53,0,2.08.69,5.83,3.44,5.83,1.67,0,3.47-2.46,4.44-3.59.22-.28.35-.63.57-.91.88-1.13,1.67-2.3,2.49-3.47.41-.57.72-1.23,1.1-1.77.16-.22.35-.41.47-.66-.09,1.48-.41,2.93-.54,4.41.03.13.03.28.03.41,0,1.73-.16,2.11.47,3.81.09.28.16.63.32.88.28.44.54.32.85.57.1.17.25.29.42.37Z"/>
        <path class="cls-4" d="m96.64,396.89v.09s-.06.09-.09.09c-.09,0-.13-.16-.09-.22-.16-.28-.32-.6-.41-.91-.06-.03-.22-.13-.13-.22-.03-.16-.28-.69-.28-.76.03-.09.06-.19.06-.28,0-.13-.09-.22-.16-.32l-.13-.06.09-.13c.06-.03.06-.06.06-.13s-.09-.09-.13-.09c-.25-.16-.28-.72-.28-.98,0-.38-.47-1.61-.6-2.11-.09-.09-.16-.22-.19-.35l.06-.06.03-.03c0-.13-.06-.25-.06-.41s0-.32-.09-.44c-.38-.28-.41-.5-.41-.95,0-.16-.13-.44-.28-.5-.44-.85-.6-1.8-1.01-2.68l-.95-1.99c-.25-.57-.72-1.07-.98-1.61-.09-.19-.22-.91-.35-1.04-.13-.09-.28-.25-.41-.32.16-.41,2.14-1.77,2.65-2.05,1.45-.79,3.75-3.53,4.16-5.2.16-.69.22-1.54.22-2.24,0-1.54-.85-2.99-2.11-3.85-.13-.32-.32-.69-.6-.91-.41-.28-2.36-.82-2.81-.82-.57,0-1.1.16-1.64.28-.35.22-.72.38-1.07.6-1.1.79-1.77,1.86-2.62,2.87-.35.41-.57.88-.88,1.29-.16.22-.38.44-.5.66-.09-.41-.13-.82-.09-1.23-.35-.57-1.58-2.55-2.14-2.71-.13-.13-.41-.19-.57-.19-.28,0-.5.16-.57.16l-.03-.03c0-.06.19-.19.19-.31,0-.03-.06-.03-.09-.03-.31,0-.59.04-.87.08,1.1,4.27,1.33,8.64.92,13.08-.24,2.57-.64,5.12-1.06,7.67-.36,2.2-.97,4.35-1.37,6.54.26-.19.53-.46.64-.61.22,0,2.65-.6,2.74-.69l.19-.22-.13-.22c-.13-.09-.19-.22-.19-.38,0-.76.5-1.32.66-2.02.35-.28.41-1.07.5-1.45.91-1.29,1.13-6.24,1.07-7.91.13,0,.66-.03.72-.16.03-.03.06-.03.09-.03.09,0,.25.13.35.16q.19.25.19.57c0,.22.13.44.09.66.63,1.48,1.17,2.99,1.83,4.44.44.98.85,1.95,1.2,2.96.22.69.38,1.45.6,2.14.54,1.86,1.1,3.75,1.73,5.58.35,1.04.91,2.3,1.83,2.99.63.47,1.48.72,2.27.72,1.29,0,1.8-1.2,1.92-2.36-.32,0-.6-1.2-.72-1.45Zm-8.7-19.35c-.41.28-.72.22-1.2.19l-.13.09c-.16.13-.25.22-.38.35h-.22c-.06,0-.25.13-.19.22l-.35.03c-.28-.09-.57-.19-.82-.32v-.5c0-1.36.47-2.71.47-3.75.16-.44.35-.91.6-1.29.47-.76.63-1.61,1.04-2.36.22-.41.88-.69,1.23-.95.91-.72,1.36-1.58,2.77-1.58.69,0,.79.5.79,1.07,0,2.11-1.89,7.6-3.62,8.79Z"/>
        <path class="cls-4" d="m104.85,394.84c.22.69.38,1.45.6,2.14.54,1.86,1.1,3.75,1.73,5.58.06.19.14.39.22.59.98.68,2.38.61,3.24.08.66-.4.99-.72,1.25-1.67,0-.01-.01-.03-.01-.04-.06-.03-.22-.13-.13-.22-.03-.16-.28-.69-.28-.76.03-.09.06-.19.06-.28,0-.13-.09-.22-.16-.32l-.13-.06.09-.13c.06-.03.06-.06.06-.13s-.09-.09-.13-.09c-.25-.16-.28-.72-.28-.98,0-.38-.47-1.61-.6-2.11-.09-.09-.16-.22-.19-.35l.06-.06.03-.03c0-.13-.06-.25-.06-.41s0-.32-.09-.44c-.38-.28-.41-.5-.41-.95,0-.16-.13-.44-.28-.5-.44-.85-.6-1.8-1.01-2.68l-.95-1.99c-.25-.57-.72-1.07-.98-1.61-.09-.19-.22-.91-.35-1.04-.13-.09-.28-.25-.41-.32.16-.41,2.14-1.77,2.65-2.05,1.45-.79,3.75-3.53,4.16-5.2.16-.69.22-1.54.22-2.24,0-1.54-.85-2.99-2.11-3.85-.13-.32-.32-.69-.6-.91-.41-.28-2.36-.82-2.81-.82-.57,0-1.1.16-1.64.28-.35.22-.72.38-1.07.6-1.1.79-1.77,1.86-2.62,2.87-.35.41-.57.88-.88,1.29-.16.22-.38.44-.5.66-.09-.41-.13-.82-.09-1.23-.35-.57-1.58-2.55-2.14-2.71-.13-.13-.41-.19-.57-.19-.28,0-.5.16-.57.16l-.03-.03c0-.06.19-.19.19-.31,0-.03-.06-.03-.09-.03-.31,0-.59.04-.87.08,1.1,4.27,1.33,8.64.92,13.08-.21,2.24-.85,5.44-1.21,7.65-.02,2.25,1.37,3.02,1.69,4.83,0,0,.32-.54.33-.54.01,0,.02,0,.03,0,.06-.68.5-1.22.65-1.87.35-.28.41-1.07.5-1.45.91-1.29,1.13-6.24,1.07-7.91.13,0,.66-.03.72-.16.03-.03.06-.03.09-.03.09,0,.25.13.35.16q.19.25.19.57c0,.22.13.44.09.66.63,1.48,1.17,2.99,1.83,4.44.44.98.85,1.95,1.2,2.96Zm-2.27-11.54l-.13.09c-.16.13-.25.22-.38.35h-.22c-.06,0-.25.13-.19.22l-.35.03c-.28-.09-.57-.19-.82-.32v-.5c0-1.36.47-2.71.47-3.75.16-.44.35-.91.6-1.29.47-.76.63-1.61,1.04-2.36.22-.41.88-.69,1.23-.95.91-.72,1.36-1.58,2.77-1.58.69,0,.79.5.79,1.07,0,2.11-1.89,7.6-3.62,8.79-.41.28-.72.22-1.2.19Z"/>
        <path class="cls-4" d="m122.29,398.88c-.54-.63-.76-1.54-1.32-2.11-.57-1.45-.5-3.03-.72-4.54-.03-.25-.16-.6-.16-.85,0-.82.32-1.61.35-2.43.06-1.58.25-3.18.57-4.73.09-.41.28-.91.28-1.36-.06-.03-.22-.13-.28-.13-.09,0-.19,0-.28.06-.85.16-1.73.35-2.58.54-.82.16-2.02.06-2.9.13-.76.88-1.48,1.92-2.11,2.9-.66.5-1.51,1.36-1.92,2.08-.6,1.04-3.09,5.42-4.22,6.05h-.03s.03,0,.03.03h-.06c-.16.13-.54.35-.72.35-.25,0-.32-.22-.32-.44l-.03-.06c.09-.47.32-.85.44-1.29,2.65-2.58,4.22-6.21,6.27-9.27-.32,0-1.45,0-1.45-.44-.06-.03-.13-.09-.13-.19,0-.5.79-.95,1.2-1.17.54.06,1.64-.06,2.08-.38.47-1.13,1.26-2.24,1.83-3.34.38-.72.85-1.42,1.26-2.17.16-.32.28-.79.47-1.07.69-1.01,1.58-1.89,2.3-2.87,1.1-1.48,2.43-3.09,3.22-4.76.16-.35.32-.72.5-1.07.09-.16.41-.25.57-.28l.25.16c1.26,0,3.06,2.27,3.06,3.47,0,.95-.41,2.77-.63,3.75.13.79.32,1.77.32,2.55,0,.88-.76,2.65-.76,3.66.6,0,1.07-.41,1.73-.44.28.06.44.76.44,1.01,0,.72-1.39.95-1.86,1.13l-.47.5c-.63.32-.79,3.62-.79,4.32,0,.22.06.47-.09.66-.13.41-.16.82-.16,1.23,0,1.54-.13,3.06-.13,4.6,0,1.36.47,2.36.47,3.5,0,.41-.19,1.32.19,1.61,0,.63-.13,1.29-.22,1.92-.25.22-1.58.38-1.92.38-.85,0-1.29-.38-1.54-1.2Zm-5.74-17.15c.66,0,1.29-.35,1.92-.35,1.17,0,2.11-.32,3.25-.63.28-3.56,1.73-7.41,1.73-10.84,0-.25.03-.35-.16-.54-.32.47-1.23,1.95-1.54,2.3-.22.25-.47.5-.63.82-.76,1.45-4.76,8.57-4.76,9.24h.19Z"/>
        <path class="cls-4" d="m142.61,388.05v-.03c0-.16-.91-1.13-1.07-1.39-.28-.47-2.84-2.36-3.44-2.71-.5-.28-1.58-.79-1.73-1.42l.06-.09c0-.16-.5-.44-.57-.82-.88-.69-1.42-1.29-1.42-2.52,0-.47.06-.69.47-.98.13-.19.91-.72,1.17-.91.47-1.48,2.11-1.92,3.5-1.92.6,0,2.74-.03,3.09.41l.32.03c.08.05.14.17.19.32.08-.18.15-.36.21-.51.23-.55.43-1.12.61-1.69-.07-.15-.13-.27-.19-.36,0-.09-.06-.16-.25-.47,0-.16-.57-.72-.69-.91-.41-.69-2.55-1.07-3.34-1.07l-.22.06c-.32-.03-.6.06-.91.06-1.92,0-3.69.85-5.17,1.95-.98.72-1.7,1.07-2.24,2.3-.19-.03-.38.6-.38.79,0,.03.03.16.06.19l.06-.06c0,.16,0,.25-.03.32.16.72-.35.09-.44.79l-.06-.09c-.09,0-.13.25-.13.35,0,.19.19,1.32.38,1.32.09,0,.16-.13.19-.22v.06c0,.66.06,1.42.19,2.08l-.06.35c.09.6,1.26,2.14,1.64,2.74l.22.13c.44.44,1.13.79,1.77,1.13,1.04.57,1.73,1.67,2.62,2.43.6.54,1.13.98,1.51,1.7.66.6.95,1.51.95,2.36,0,1.48-.91,2.65-1.67,3.78-.47.72-.47,1.58-1.36,2.05-1.1.6-2.33.98-3.56,1.2-.09-.03-.22-.06-.35-.06-.06,0-1.01.32-1.13.35-.57-.16-1.2-.22-1.7-.54h-.13c-1.39,0-1.58-1.07-1.58-2.17,0-2.36,1.61-2.27,1.86-2.99.06-.22.63-.25.73-.5.19-.54.6-.38.79-.69,0-.54-1.01-.69-1.39-.69-2.3,0-3.31,3.94-3.31,5.74,0,2.71,1.73,4.79,4.41,5.33,1.29.25,2.77.25,4.1.25.63,0,1.29-.32,1.92-.41.91-.5,1.77-.41,2.84-1.1,2.52-1.64,3.59-2.33,4.32-5.33.03-.09.06-.19.03-.32.09-.28.13-.57.22-.85-.09-.06-.09-.19-.09-.28,0-.32.06-.6.03-.91l.03-.06c0-.22-.13-.28-.06-.6-.03-.09-.03-.16-.03-.25,0-.06.16-.03.19-.16-.13-.63-.44-2.33-.79-2.77-.28-.35-1.07-1.29-1.17-1.67Z"/>
        <path class="cls-4" d="m160.52,394.65c-.89.95-1.9,1.76-2.93,2.22-.54.25-1.58,1.07-2.17,1.07-.38,0-.69-.38-1.01-.57l-.28-.13c-1.86-.35-2.77-2.27-3.12-3.97-.13-.6-.06-1.29-.06-1.89,0-.57-.06-1.13-.06-1.67,0-.47.03-.95.03-1.42,0-.69.28-1.42.44-2.08.09-.35.09-.66.13-1.04.25-2.24,1.92-5.8,3.22-7.66.03-.19.09-.35.16-.5.66-.66,1.29-1.95,1.86-2.74.66-.41,1.36-1.67,2.14-1.67.32,0,.63.09.98.09.69,0,2.36.79,2.36,1.61,0,1.01-2.36.66-2.36,2.05,0,.69.54,2.49,1.42,2.49h.09c.35-.19.88-.22,1.1-.6-.03-.06-.03-.13-.03-.19,0-.95,1.13-2.36,1.13-3.78,0-.6-.16-1.23-.54-1.7-.31-.41-.72-.44-1.2-.57-1.07-.32-1.42-.66-2.77-.88-.38-.06-.76-.13-1.17-.13-.35,0-.69.09-1.04.09-1.45,0-2.71.54-3.94,1.26-5.11,2.99-7.28,11.41-7.28,16.99,0,3.15.54,6.78,3.25,8.83,1.1.82,3.03,1.67,4.41,1.67,2.02,0,3.15-.54,4.76-1.7.25-.19.5-.41.79-.6.93-.59,1.59-1.15,2.3-1.98.02-.08.04-.16.06-.23-.26-.18-.49-.4-.67-.67Z"/>
        <path class="cls-4" d="m36.39,397.06c-.82.72-1.7,1.32-2.58,1.71-.69.33-2.03,1.38-2.81,1.38-.49,0-.9-.49-1.3-.73l-.37-.16c-2.4-.45-3.58-2.93-4.03-5.13-.16-.77-.08-1.67-.08-2.44,0-.73-.08-1.46-.08-2.16,0-.61.04-1.22.04-1.83,0-.89.37-1.83.57-2.68.12-.45.12-.85.16-1.34.33-2.89,2.48-7.48,4.15-9.88.04-.24.12-.45.2-.65.85-.85,1.67-2.52,2.4-3.54.85-.53,1.75-2.16,2.77-2.16.41,0,.81.12,1.26.12.89,0,3.05,1.02,3.05,2.07,0,1.3-3.05.85-3.05,2.64,0,.9.69,3.21,1.83,3.21h.12c.45-.24,1.14-.28,1.42-.77-.04-.08-.04-.16-.04-.24,0-1.22,1.46-3.05,1.46-4.88,0-.77-.2-1.59-.69-2.2-.41-.53-.94-.57-1.55-.73-1.38-.41-1.83-.85-3.58-1.14-.49-.08-.98-.16-1.5-.16-.45,0-.89.12-1.34.12-1.87,0-3.5.69-5.08,1.63-6.59,3.86-9.4,14.73-9.4,21.93,0,4.07.69,8.75,4.19,11.39,1.42,1.06,3.91,2.16,5.69,2.16,2.6,0,4.07-.69,6.14-2.2.25-.19.5-.39.77-.59.35-.52.63-1.08.97-1.6.1-.38.19-.76.27-1.15Z"/>
        <path class="cls-4" d="m181.68,374.73c-.16-.41-.28-.82-.5-1.23-.6-1.13-2.74-2.46-3.94-2.84,0-.03.03-.06.03-.09,0-.5-1.92-.88-2.33-.88-.47,0-.91-.32-1.42-.32-.54,0-1.32.19-1.92.6-1.45.5-1.95,1.32-1.95,2.87,0,.41,0,.88.09,1.26-1.13.41-2.17,1.2-3.03,2.08-.25,0-.44.09-.69.19-1.64,1.83-3.4,6.4-3.85,8.79-.28,1.54-.47,3.28-.47,4.85,0,.73.17,1.83.4,2.81.08.14.12.31.15.46.02.11.04.21.06.32,0,.04.02.08.02.11.07.24.14.46.21.64,1.45,3.75,4.22,7.09,8.54,7.09.25,0,.5-.06.69-.19.88,0,1.73-.28,2.36-.88.41-.06,1.23-.6,1.42-.95.76-.66,2.14-2.62,2.65-3.56.25-.5,1.39-2.62,1.42-3.06.09-.13.19-.35.13-.44.44-.79.76-1.7,1.1-2.52.03,0,.06.02.09.03.02-.06.04-.12.07-.18v-.34c0-.25.07-.49.18-.71,0,0-.02,0-.02-.01l.54-2.43c.09-.47.32-.91.35-1.39.47-.72.63-5.45.63-6.56,0-1.23-.54-2.43-1.01-3.56Zm-1.68,11.79c-.02,1.4-.29,2.78-.9,4.06-.08.17-.18.33-.29.47-.25.63-.52,1.25-.76,1.85-.82,2.02-2.62,6.37-5.3,6.37-1.39,0-1.8-1.2-1.99-1.2-1.67-1.99-2.14-4.57-2.14-7.09,0-2.02.47-3.91.95-5.86.16-.66.28-1.48.57-2.11.76-1.61,1.2-3.03,1.64-4.76,0,.01,0,.02.01.04.51-1.68,1.48-3.2,2.87-4.39.03-.31.06-.58.08-.69.16-.73.85-1.77,1.67-1.77.09,0,.28.03.35.06.09.06.16.19.19.28.47.88,1.77,1.01,2.4,1.77.16.19.32.5.54.63,1.01,1.51,1.04,4.35,1.04,6.08,0,2.17-.5,4.17-.92,6.25Z"/>
      </g>
      <text class="cls-1" transform="translate(37.08 395.17)"><tspan x="0" y="0">H</tspan></text>
    </g>
    <path class="cls-4" d="m66.98,363.93c7.15-10.89,19.46-18.09,33.46-18.09s26.31,7.2,33.46,18.09h2.75c-7.45-12.18-20.88-20.32-36.2-20.32s-28.75,8.13-36.2,20.32h2.75Z"/>
    <path class="cls-4" d="m100.44,428.43c16.76,0,31.21-9.67,38.1-23.77l-2.71-.03c-6.72,12.63-20.09,21.21-35.39,21.21"/>
    <path class="cls-4" d="m100.44,425.84c-15.31,0-28.6-8.6-35.33-21.24h-2.8c6.89,14.11,21.37,23.83,38.13,23.83"/>
    <g>
      <path class="cls-4" d="m76.32,426.06c-.13.17-.29.29-.48.37-.19.07-.41.09-.64.05-.21-.03-.41-.1-.62-.2-.21-.1-.42-.23-.65-.41-.17-.13-.34-.26-.52-.4-.18-.14-.27-.22-.29-.24.25-.33.49-.64.71-.93.22-.29.43-.57.63-.84.38-.51.68-.91.89-1.21.22-.3.33-.45.34-.47.03.02.12.08.3.2.17.12.34.23.49.35.18.13.33.27.46.4s.23.26.31.38c.11.18.17.36.17.54,0,.18-.06.36-.19.53-.13.18-.31.29-.52.35-.22.05-.41.05-.6,0l-.02.03c.11.1.21.21.28.34.08.13.13.27.15.42.02.13.01.25-.02.37-.03.12-.09.24-.19.37Zm-.45-.32c.07-.09.11-.18.13-.27s.02-.19.01-.3c-.01-.1-.06-.21-.14-.32-.08-.11-.17-.21-.29-.3-.1-.07-.18-.13-.24-.17-.06-.04-.1-.07-.12-.09l.19-.34c.13.09.25.16.37.21.12.05.23.07.35.07.11,0,.22-.02.33-.06.11-.05.2-.12.27-.22.08-.1.12-.22.13-.33s-.02-.23-.08-.34c-.05-.09-.12-.19-.22-.29-.1-.1-.21-.2-.33-.29-.08-.06-.16-.11-.23-.16-.07-.05-.11-.08-.13-.09-.19.25-.4.51-.61.8-.21.28-.37.49-.46.61-.22.3-.44.6-.66.9-.22.3-.34.46-.36.48.03.03.08.06.13.11s.11.09.16.13c.2.15.39.28.57.38.19.11.36.17.53.19.14.02.26,0,.38-.04.12-.05.22-.13.3-.24Z"/>
      <path class="cls-4" d="m79.76,426.22c-.12-.04-.3-.08-.56-.12-.26-.05-.56-.08-.91-.12-.01.02-.07.11-.17.28-.1.16-.19.32-.28.46-.13.22-.28.48-.45.78-.17.3-.27.47-.29.5l-.44-.26s.08-.13.19-.31c.11-.17.29-.47.54-.9.1-.17.24-.41.42-.72.18-.31.35-.6.51-.88l.43.25-.25.42h0c.28,0,.55.03.8.06.26.03.45.07.59.11l-.15.44Z"/>
      <path class="cls-4" d="m81.9,428.43c-.23.48-.42.87-.57,1.18-.15.3-.23.46-.24.49-.02,0-.11-.04-.28-.11-.17-.06-.38-.16-.63-.28-.16-.08-.31-.17-.46-.27-.15-.11-.27-.21-.36-.32-.12-.15-.2-.3-.24-.48-.04-.17-.01-.34.07-.52.09-.18.22-.32.4-.4.18-.08.39-.11.63-.1.15,0,.34.04.57.1.23.06.49.14.77.25.06-.16.08-.3.07-.43-.02-.13-.08-.25-.18-.36-.07-.08-.15-.15-.25-.21-.1-.07-.22-.13-.36-.2-.09-.04-.16-.08-.23-.1-.06-.03-.15-.06-.26-.1l.23-.37s.09.04.18.07c.09.04.21.09.36.16.23.11.42.23.58.37.16.13.27.28.34.45.06.15.09.32.07.49-.01.18-.09.4-.22.69Zm-.78.49c.03-.07.07-.15.12-.25s.1-.22.16-.35c-.09-.04-.24-.09-.47-.16-.23-.07-.43-.12-.6-.13-.13-.01-.25,0-.38.04-.12.04-.21.12-.27.24-.06.13-.08.26-.05.37.03.11.1.22.21.33.08.08.17.15.28.22.11.07.23.14.36.2.04.02.09.04.14.07.06.03.12.05.18.08,0-.01.04-.08.09-.19.06-.11.13-.27.22-.46Z"/>
      <path class="cls-4" d="m84.59,431.44s-.18-.07-.51-.19c-.33-.12-.57-.22-.73-.28-.2-.08-.45-.17-.73-.27-.29-.11-.44-.16-.45-.17v-.32c.3-.18.7-.42,1.19-.73.5-.3,1-.62,1.51-.94h0c-.09-.04-.17-.07-.26-.11-.09-.03-.17-.07-.26-.1-.19-.07-.44-.16-.74-.27-.3-.11-.46-.17-.47-.17l.14-.38s.18.07.49.19c.31.12.5.19.57.22.14.05.36.13.66.25.3.11.46.17.49.18l.05.34c-.51.3-1.06.63-1.65,1.01-.59.37-.94.59-1.04.65h0c.08.04.18.07.3.12s.26.1.4.15c.41.15.7.26.89.33.19.07.29.1.3.11l-.15.39Z"/>
      <path class="cls-4" d="m86.03,431.9l-.49-.15s.08-.23.2-.61c.12-.37.22-.68.29-.92.07-.21.14-.45.21-.7.08-.25.17-.55.27-.9l.49.15c-.1.29-.19.57-.27.83-.08.26-.16.49-.22.69-.15.48-.27.86-.35,1.16-.08.29-.13.44-.13.45Zm1.18-3.71l-.54-.17.16-.53.54.17-.16.53Z"/>
      <path class="cls-4" d="m87.83,432.4l-.49-.13s.09-.33.25-.91c.16-.58.29-1.07.39-1.45.07-.25.15-.56.25-.94.1-.38.21-.8.33-1.28l.49.13c-.09.32-.19.69-.31,1.11-.11.42-.21.78-.29,1.07-.17.63-.31,1.18-.43,1.66-.12.47-.19.72-.19.74Z"/>
      <path class="cls-4" d="m89.65,432.84l-.5-.11s.06-.24.15-.62c.09-.38.16-.69.22-.94.05-.22.1-.45.16-.71.06-.26.12-.56.19-.91l.5.11c-.07.3-.14.58-.2.85s-.12.5-.16.7c-.11.49-.2.88-.26,1.18-.06.3-.09.45-.09.46Zm.88-3.79l-.55-.12.12-.54.55.12-.12.54Z"/>
      <path class="cls-4" d="m93.49,431.68c-.09.53-.16.96-.22,1.29-.06.33-.09.51-.09.53-.02,0-.12,0-.3-.03-.18-.02-.41-.05-.69-.09-.17-.03-.35-.07-.52-.14-.17-.06-.32-.13-.43-.21-.16-.11-.28-.24-.36-.39-.08-.15-.11-.33-.08-.52.03-.2.13-.37.27-.49.15-.13.34-.22.58-.27.15-.03.34-.06.58-.06.24,0,.51,0,.81.03.01-.17,0-.31-.06-.43-.05-.12-.14-.22-.27-.29-.09-.05-.19-.1-.3-.13-.11-.04-.24-.07-.4-.09-.1-.02-.18-.03-.24-.03-.07,0-.16-.02-.28-.03l.12-.41s.1,0,.19.02c.1.01.22.03.39.06.25.04.47.11.66.19.19.08.34.2.45.33.1.13.17.28.21.46.03.17.03.41-.03.72Zm-.62.69c.01-.07.03-.16.05-.27.02-.11.04-.24.06-.38-.09-.01-.26-.02-.5-.03-.24,0-.44,0-.61.04-.13.02-.24.07-.35.15-.11.07-.17.18-.19.31-.02.14,0,.27.06.37.06.1.16.19.29.26.1.05.21.1.33.14.12.04.26.07.4.09.04,0,.09.01.16.02.06,0,.13.02.2.03,0-.01.01-.08.04-.21.02-.13.05-.29.09-.51Z"/>
      <path class="cls-4" d="m97.2,433.92l-.51-.05c0-.06.03-.26.06-.59.03-.34.06-.54.06-.62.01-.11.03-.28.04-.49.02-.22.03-.38.04-.48.02-.25-.01-.43-.09-.54-.08-.12-.23-.18-.44-.2-.13-.01-.3.01-.5.07-.2.06-.4.14-.61.24,0,.02-.01.15-.04.38-.02.23-.04.44-.06.63-.02.25-.05.55-.08.9-.03.35-.04.54-.04.55l-.51-.05s.02-.15.04-.39c.03-.25.06-.62.11-1.1.02-.23.04-.49.07-.79.03-.3.05-.62.08-.97l.5.05-.04.37h0c.32-.14.58-.23.78-.28.21-.05.38-.07.51-.06.27.03.49.13.64.32.15.19.21.43.18.73-.03.27-.05.5-.07.7-.02.2-.04.35-.05.48-.02.19-.04.44-.06.73-.02.29-.03.45-.03.46Z"/>
      <path class="cls-4" d="m102.61,432.79c0,.22-.05.42-.15.58s-.24.3-.42.41c-.16.1-.35.17-.55.22-.21.05-.44.08-.69.08-.14,0-.28,0-.43,0-.15,0-.23-.01-.26-.01l-.03-.47s.11.01.25.02c.14.01.3.01.49.01.11,0,.26-.02.44-.05s.32-.07.42-.12c.13-.06.22-.14.29-.23.07-.09.1-.2.1-.34,0-.14-.04-.27-.11-.37-.07-.1-.18-.2-.34-.29-.1-.06-.23-.13-.4-.2-.16-.07-.31-.15-.44-.23-.22-.13-.38-.27-.47-.43-.1-.16-.14-.33-.15-.53,0-.2.04-.37.12-.52.08-.15.19-.27.33-.38.14-.1.3-.18.5-.24.2-.05.42-.08.66-.08.13,0,.27,0,.41,0s.22.01.23.01l.05.47s-.1,0-.24-.02c-.14-.01-.31-.02-.51-.01-.12,0-.24.02-.37.04-.13.03-.24.07-.34.13-.09.05-.16.12-.22.21-.06.09-.09.19-.09.31,0,.11.03.21.1.3.06.1.18.2.36.3.09.05.21.11.35.18.15.07.29.14.43.22.22.12.38.27.49.43.11.16.17.35.17.56Z"/>
      <path class="cls-4" d="m105.52,433.42l-.03.41s-.05,0-.11.01-.11.01-.15.01c-.44.03-.78-.04-1.02-.21-.24-.17-.37-.44-.4-.82-.02-.24-.03-.49-.05-.77s-.04-.61-.07-1.02l-.54.04-.03-.38.57-.04-.05-.76.47-.03.05.76,1.15-.08.03.38-1.15.08s.01.18.02.4c.01.22.02.39.03.5,0,.09.01.2.02.33,0,.13.02.29.03.47.02.28.11.48.27.59.16.11.39.16.71.14.04,0,.08,0,.14-.01.05,0,.09,0,.1,0Z"/>
      <path class="cls-4" d="m108.51,431.61c.07.53.12.96.16,1.29.04.33.06.51.07.54-.02,0-.12.03-.29.06-.18.04-.4.07-.68.11-.18.02-.35.03-.53.02-.18,0-.34-.04-.48-.08-.18-.06-.33-.15-.46-.27-.12-.12-.2-.28-.22-.47-.03-.2.01-.39.12-.55.11-.16.26-.31.47-.43.13-.08.31-.15.54-.23.23-.08.49-.14.78-.21-.03-.17-.09-.3-.18-.39-.08-.1-.2-.17-.34-.2-.1-.03-.21-.04-.32-.04-.12,0-.25,0-.41.03-.1.01-.18.03-.24.04-.07.01-.16.03-.27.05v-.43s.09-.02.19-.04c.09-.02.22-.04.39-.06.25-.03.48-.04.68,0,.2.03.38.09.52.19.14.09.25.22.33.38.08.16.14.39.18.7Zm-.39.83c0-.07-.02-.16-.04-.28-.01-.11-.03-.24-.05-.38-.09.02-.26.06-.49.12-.23.06-.42.14-.57.22-.11.06-.21.14-.29.24-.08.1-.11.22-.1.35.02.15.07.26.16.34.09.08.21.13.35.16.11.02.23.03.36.03.13,0,.26,0,.4-.03.04,0,.09-.01.16-.02.06-.01.13-.02.19-.03,0-.01-.01-.08-.03-.21-.01-.13-.04-.3-.06-.51Z"/>
      <path class="cls-4" d="m110.57,433.12l-.5.1s-.06-.32-.16-.86c-.1-.53-.21-1.08-.32-1.63-.05-.24-.11-.54-.18-.9-.07-.36-.16-.78-.26-1.25l.5-.1c.07.38.15.81.25,1.3.1.49.16.79.18.88.04.22.14.67.28,1.36.14.69.22,1.06.23,1.09Zm2.25-.52l-.25.34c-.56-.38-1.06-.71-1.5-.99s-.68-.43-.72-.46h0c.04-.06.22-.33.53-.81.31-.48.56-.88.75-1.18l.37.25c-.2.29-.41.6-.64.93-.22.32-.36.53-.42.61h0c.75.53,1.37.97,1.87,1.32Z"/>
      <path class="cls-4" d="m115.62,430.07l-2.25.63c.06.22.17.41.31.57.14.16.33.27.55.34.14.04.29.06.46.06s.35-.04.57-.1c.12-.03.23-.07.32-.1.1-.03.16-.06.18-.06l.06.43s-.07.03-.16.06c-.09.03-.2.07-.33.1-.33.09-.63.13-.9.11-.27-.02-.5-.08-.7-.19-.17-.09-.33-.22-.48-.39s-.26-.38-.33-.62c-.07-.24-.09-.46-.07-.67s.07-.42.17-.62c.08-.18.2-.33.36-.45.16-.13.34-.22.53-.27.19-.05.37-.07.54-.06.17.02.32.07.46.16.16.1.3.24.42.41.12.18.22.4.3.67Zm-.58-.21c-.11-.25-.25-.42-.43-.53-.18-.11-.39-.13-.62-.06-.23.07-.41.19-.52.39-.11.19-.17.42-.15.69l1.73-.49Z"/>
      <path class="cls-4" d="m119.63,430.48l-.48.18c-.02-.06-.09-.24-.2-.55-.11-.3-.19-.51-.22-.6-.04-.1-.1-.26-.18-.46s-.14-.35-.17-.45c-.09-.23-.2-.38-.32-.45-.12-.07-.28-.07-.49.01-.11.04-.25.13-.4.27-.15.14-.31.3-.46.49l.89,2.32-.48.18c-.03-.08-.14-.4-.35-.95-.21-.56-.38-1.01-.51-1.37-.09-.23-.2-.53-.34-.88s-.29-.76-.47-1.22l.48-.18.64,1.72h0c.23-.27.42-.47.58-.6.16-.13.31-.22.44-.27.26-.1.5-.09.71,0,.22.1.38.3.49.58.1.25.18.47.24.66.07.19.12.34.16.45.07.18.15.39.24.63.09.24.16.4.19.49Z"/>
      <path class="cls-4" d="m122.79,427.15c.11.22.18.46.2.7s0,.48-.08.7c-.07.18-.16.35-.28.49-.12.14-.28.26-.48.36-.19.09-.37.15-.57.17-.19.02-.38,0-.57-.06-.22-.07-.42-.18-.6-.35-.18-.17-.33-.36-.45-.59-.11-.22-.18-.44-.2-.66-.02-.22,0-.44.07-.66.06-.2.16-.38.29-.54.14-.16.3-.28.49-.38.2-.1.4-.16.59-.17.2-.02.39.01.58.08.22.08.42.2.58.35.17.15.31.34.42.57Zm-.45.25c-.09-.18-.21-.34-.35-.48-.14-.14-.31-.24-.49-.3-.11-.04-.23-.05-.35-.03-.12.01-.24.05-.35.1-.13.07-.24.15-.31.24s-.14.2-.18.34c-.05.15-.06.33-.04.52s.08.37.16.55c.1.2.22.36.36.5.14.13.31.23.5.28.11.03.22.04.34.02.12-.01.23-.05.34-.1.12-.06.22-.14.31-.23.08-.09.14-.2.18-.32.05-.17.07-.34.05-.53-.02-.19-.08-.37-.16-.54Z"/>
      <path class="cls-4" d="m126.79,426.53l-.41.27-.21-.31h0c-.07.17-.17.35-.3.57-.13.21-.29.38-.47.5-.25.16-.49.22-.73.16-.24-.05-.44-.21-.62-.48-.09-.14-.21-.32-.34-.52-.13-.2-.22-.35-.28-.43-.11-.16-.24-.36-.41-.6-.16-.24-.25-.37-.27-.4l.43-.28s.1.15.25.39c.15.24.27.43.37.57.08.12.18.28.31.46.12.18.21.31.26.39.14.21.28.34.42.39.14.05.28.03.44-.08.16-.11.31-.27.44-.48.13-.21.23-.38.27-.51-.01-.02-.08-.12-.19-.3-.12-.18-.26-.4-.43-.66-.12-.19-.28-.41-.45-.67s-.28-.4-.29-.43l.43-.28s.09.13.2.31.3.47.57.88c.15.23.29.43.41.61.12.17.33.48.63.93Z"/>
      <path class="cls-4" d="m128.72,423.72c.1.12.17.25.19.4.02.15.01.29-.03.43-.05.15-.13.3-.24.44-.11.15-.25.29-.41.44-.08.07-.17.14-.26.2s-.15.1-.16.11l-.29-.31s.08-.06.18-.13c.11-.08.21-.16.31-.24.06-.05.13-.12.21-.2.08-.09.14-.17.18-.24.05-.11.07-.2.07-.29,0-.09-.04-.17-.1-.24-.06-.07-.12-.11-.19-.12-.07-.01-.15-.01-.25,0-.1.01-.23.04-.39.09-.16.05-.29.08-.41.1-.17.03-.32.02-.45-.02-.14-.04-.26-.12-.36-.25-.1-.12-.16-.26-.18-.41-.02-.15,0-.31.07-.46.05-.14.13-.26.23-.38.1-.12.21-.22.32-.32.1-.09.18-.15.25-.2.07-.05.11-.08.12-.09l.31.3s-.07.05-.16.12c-.1.07-.2.15-.3.24-.08.06-.14.13-.2.2-.06.07-.1.14-.13.2-.04.1-.05.18-.04.26.01.08.04.14.08.19.06.07.13.1.21.11.08.01.17,0,.25,0,.1-.02.23-.05.4-.09.16-.05.28-.07.36-.09.18-.03.33-.02.47.02.14.04.25.12.36.24Z"/>
      <path class="cls-4" d="m130.63,420.53l-1.57,1.73c.17.15.36.26.56.31.2.06.42.06.64,0,.14-.04.28-.1.42-.2.14-.09.28-.22.43-.39.08-.09.16-.18.22-.26s.1-.13.12-.15l.28.33s-.05.06-.11.13c-.06.08-.14.16-.22.26-.23.26-.47.45-.7.58-.24.13-.47.2-.7.22-.19.02-.4,0-.61-.07-.22-.07-.42-.18-.6-.35-.18-.16-.32-.34-.42-.53-.1-.19-.16-.39-.19-.61-.02-.19,0-.38.07-.58.07-.19.17-.37.3-.52.13-.15.28-.26.42-.33.15-.07.31-.11.47-.11.19,0,.38.04.57.13.19.09.4.22.61.41Zm-.6.13c-.22-.15-.44-.23-.65-.22-.21,0-.4.1-.56.28-.16.18-.24.38-.23.6,0,.22.09.45.24.67l1.21-1.33Z"/>
    </g>
    <rect class="cls-7" x="229.27" y="334.05" width="191.51" height="109.43"/>
    <g>
      <path class="cls-8" d="m350.75,421.2c1.71-1.18,3.33-2.49,4.85-3.9v-11.16h-4.85v15.05Z"/>
      <path class="cls-8" d="m355.6,355.03c-1.52-1.41-3.14-2.71-4.85-3.9v11.64h4.85v-7.75Z"/>
      <path class="cls-8" d="m340.73,426.32c1.85-.66,3.65-1.44,5.37-2.33v-17.85h-5.37v20.18Z"/>
      <path class="cls-8" d="m346.11,348.34c-1.73-.89-3.52-1.67-5.37-2.33v16.77h5.37v-14.44Z"/>
      <path class="cls-8" d="m321.02,428.47c1.74.21,3.51.33,5.31.33v-22.65h-5.31v22.32Z"/>
      <path class="cls-8" d="m326.33,343.54c-1.8,0-3.57.11-5.31.33v18.91h5.31v-19.24Z"/>
      <path class="cls-8" d="m330.98,428.54c1.74-.19,3.44-.47,5.11-.86v-21.54h-5.11v22.4Z"/>
      <path class="cls-8" d="m336.09,344.65c-1.67-.39-3.37-.67-5.11-.86v18.99h5.11v-18.13Z"/>
      <path class="cls-8" d="m360.25,360.27v2.67h1.9c-.6-.91-1.23-1.81-1.9-2.67Z"/>
      <path class="cls-8" d="m360.25,412.22c1.48-1.9,2.79-3.94,3.94-6.08h-3.94v6.08Z"/>
      <path class="cls-8" d="m292.69,412.57c1.39,1.75,2.92,3.39,4.57,4.91v-11.34h-4.57v6.43Z"/>
      <path class="cls-8" d="m297.25,354.85c-1.65,1.51-3.18,3.15-4.57,4.91v3.02h4.57v-7.93Z"/>
      <path class="cls-8" d="m311.61,426.21c1.55.56,3.14,1.04,4.76,1.42v-21.49h-4.76v20.07Z"/>
      <path class="cls-8" d="m316.37,344.7c-1.62.38-3.21.86-4.76,1.42v16.66h4.76v-18.08Z"/>
      <path class="cls-8" d="m301.9,421.19c1.61,1.11,3.3,2.12,5.06,3.01v-18.06h-5.06v15.05Z"/>
      <path class="cls-8" d="m306.96,348.13c-1.76.89-3.45,1.9-5.06,3.01v11.64h5.06v-14.65Z"/>
    </g>
    <g>
      <g>
        <path class="cls-6" d="m298.82,401.7c.1-.05.2-.09.32-.13,1.37-.43,2.2-1.07,2.58-2.48,0-.01,0-.02.01-.03.11-3.96,1.39-8.85,2.16-12.5.37-1.81.77-3.85.77-5.69s-.47-3.71-2.48-4.05c-.2-.2-.3-.33-.6-.33-1.67,0-1.41.74-1.84,1.84-.27.7-.37,1.61-.5,2.38-.1.67-.4,1.37-.57,2.04s-.23,1.41-.44,2.07c-.27,1-.6,2.11-1.07,3.04-1.54,3.04-4.92,8.1-7.56,10.41-.5-.5-.57-.87-.57-1.17,0-1.77,1.3-4.58,1.34-6.29,0-.3.03-.57.1-.87l-.03-.17c.33-1.3.33-2.81.77-4.32l-.03-.13.23-.84c-.03-.13.03-.27.13-.37,0-.2-.03-.37-.03-.57,0-1.34.94-1.87.94-2.61,0-.23-.1-.8-.27-1,0-.64.43-1.14.5-1.71.07-.6.13-1.24.13-1.84,0-.84-.27-2.71-.87-3.31-.84-1.34-2.04-2.11-3.71-2.11-.77,0-.6.54-.64.97l-.1.2c-.07,1.04-.2,2.68-.4,3.78l-.2,1.67c-.13.84-.47,1.74-.67,2.58-.33,1.37-.57,2.74-.84,4.12-.7,3.68-1.51,7.39-1.51,11.18,0,2.21.74,6.19,3.65,6.19,1.77,0,3.68-2.61,4.72-3.81.23-.3.37-.67.6-.97.94-1.2,1.77-2.44,2.64-3.68.44-.6.77-1.3,1.17-1.87.17-.23.37-.43.5-.7-.1,1.57-.43,3.11-.57,4.68.03.13.03.3.03.43,0,1.84-.17,2.24.5,4.05.1.3.17.67.33.94.3.47.57.33.9.6.11.18.26.31.44.4Z"/>
        <path class="cls-6" d="m322.37,397.93v.1s-.07.1-.1.1c-.1,0-.13-.17-.1-.23-.17-.3-.33-.64-.43-.97-.07-.03-.23-.13-.13-.23-.03-.17-.3-.74-.3-.8.03-.1.07-.2.07-.3,0-.13-.1-.23-.17-.33l-.13-.07.1-.13c.07-.03.07-.07.07-.13s-.1-.1-.13-.1c-.27-.17-.3-.77-.3-1.04,0-.4-.5-1.71-.64-2.24-.1-.1-.17-.23-.2-.37l.07-.07.03-.03c0-.13-.07-.27-.07-.43s0-.33-.1-.47c-.4-.3-.44-.54-.44-1,0-.17-.13-.47-.3-.54-.47-.9-.64-1.91-1.07-2.84l-1-2.11c-.27-.6-.77-1.14-1.04-1.71-.1-.2-.23-.97-.37-1.1-.13-.1-.3-.27-.44-.33.17-.43,2.28-1.87,2.81-2.17,1.54-.84,3.98-3.75,4.42-5.52.17-.74.23-1.64.23-2.38,0-1.64-.9-3.18-2.24-4.08-.13-.33-.33-.74-.64-.97-.44-.3-2.51-.87-2.98-.87-.6,0-1.17.17-1.74.3-.37.23-.77.4-1.14.64-1.17.84-1.87,1.97-2.78,3.04-.37.44-.6.94-.94,1.37-.17.23-.4.47-.54.7-.1-.44-.13-.87-.1-1.31-.37-.6-1.67-2.71-2.28-2.88-.13-.13-.44-.2-.6-.2-.3,0-.54.17-.6.17l-.03-.03c0-.07.2-.2.2-.33,0-.03-.07-.03-.1-.03-.33,0-.63.04-.92.09,1.17,4.54,1.41,9.17.98,13.88-.25,2.73-.68,5.44-1.13,8.14-.39,2.33-1.03,4.62-1.45,6.94.28-.2.56-.49.68-.65.23,0,2.81-.64,2.91-.74l.2-.23-.13-.23c-.13-.1-.2-.23-.2-.4,0-.8.54-1.41.7-2.14.37-.3.44-1.14.54-1.54.97-1.37,1.2-6.62,1.14-8.4.13,0,.7-.03.77-.17.03-.03.07-.03.1-.03.1,0,.27.13.37.17q.2.27.2.6c0,.23.13.47.1.7.67,1.57,1.24,3.18,1.94,4.72.47,1.04.9,2.07,1.27,3.15.23.74.4,1.54.64,2.27.57,1.97,1.17,3.98,1.84,5.92.37,1.1.97,2.44,1.94,3.18.67.5,1.57.77,2.41.77,1.37,0,1.91-1.27,2.04-2.51-.33,0-.64-1.27-.77-1.54Zm-9.23-20.54c-.44.3-.77.23-1.27.2l-.13.1c-.17.13-.27.23-.4.37h-.23c-.07,0-.27.13-.2.23l-.37.03c-.3-.1-.6-.2-.87-.33v-.54c0-1.44.5-2.88.5-3.98.17-.47.37-.97.64-1.37.5-.8.67-1.71,1.1-2.51.23-.43.94-.74,1.3-1,.97-.77,1.44-1.67,2.94-1.67.74,0,.84.54.84,1.14,0,2.24-2.01,8.06-3.85,9.33Z"/>
        <path class="cls-6" d="m331.09,395.75c.23.74.4,1.54.64,2.27.57,1.97,1.17,3.98,1.84,5.92.07.2.15.41.23.63,1.04.72,2.52.64,3.44.08.7-.42,1.05-.76,1.33-1.77,0-.01-.01-.03-.02-.04-.07-.03-.23-.13-.13-.23-.03-.17-.3-.74-.3-.8.03-.1.07-.2.07-.3,0-.13-.1-.23-.17-.33l-.13-.07.1-.13c.07-.03.07-.07.07-.13s-.1-.1-.13-.1c-.27-.17-.3-.77-.3-1.04,0-.4-.5-1.71-.64-2.24-.1-.1-.17-.23-.2-.37l.07-.07.03-.03c0-.13-.07-.27-.07-.43s0-.33-.1-.47c-.4-.3-.44-.54-.44-1,0-.17-.13-.47-.3-.54-.47-.9-.64-1.91-1.07-2.84l-1-2.11c-.27-.6-.77-1.14-1.04-1.71-.1-.2-.23-.97-.37-1.1-.13-.1-.3-.27-.44-.33.17-.43,2.28-1.87,2.81-2.17,1.54-.84,3.98-3.75,4.42-5.52.17-.74.23-1.64.23-2.38,0-1.64-.9-3.18-2.24-4.08-.13-.33-.33-.74-.64-.97-.44-.3-2.51-.87-2.98-.87-.6,0-1.17.17-1.74.3-.37.23-.77.4-1.14.64-1.17.84-1.87,1.97-2.78,3.04-.37.44-.6.94-.94,1.37-.17.23-.4.47-.54.7-.1-.44-.13-.87-.1-1.31-.37-.6-1.67-2.71-2.28-2.88-.13-.13-.44-.2-.6-.2-.3,0-.54.17-.6.17l-.03-.03c0-.07.2-.2.2-.33,0-.03-.07-.03-.1-.03-.33,0-.63.04-.92.09,1.17,4.54,1.41,9.17.98,13.88-.22,2.38-.9,5.77-1.28,8.13-.02,2.39,1.46,3.21,1.79,5.12,0,0,.34-.57.35-.58.01,0,.02,0,.03,0,.06-.73.53-1.3.69-1.99.37-.3.44-1.14.54-1.54.97-1.37,1.2-6.62,1.14-8.4.13,0,.7-.03.77-.17.03-.03.07-.03.1-.03.1,0,.27.13.37.17q.2.27.2.6c0,.23.13.47.1.7.67,1.57,1.24,3.18,1.94,4.72.47,1.04.9,2.07,1.27,3.15Zm-2.41-12.25l-.13.1c-.17.13-.27.23-.4.37h-.23c-.07,0-.27.13-.2.23l-.37.03c-.3-.1-.6-.2-.87-.33v-.54c0-1.44.5-2.88.5-3.98.17-.47.37-.97.64-1.37.5-.8.67-1.71,1.1-2.51.23-.43.94-.74,1.3-1,.97-.77,1.44-1.67,2.94-1.67.74,0,.84.54.84,1.14,0,2.24-2.01,8.06-3.85,9.33-.44.3-.77.23-1.27.2Z"/>
        <path class="cls-6" d="m349.6,400.04c-.57-.67-.8-1.64-1.41-2.24-.6-1.54-.54-3.21-.77-4.82-.03-.27-.17-.64-.17-.9,0-.87.33-1.71.37-2.58.07-1.67.27-3.38.6-5.02.1-.43.3-.97.3-1.44-.07-.03-.23-.13-.3-.13-.1,0-.2,0-.3.07-.9.17-1.84.37-2.74.57-.87.17-2.14.07-3.08.13-.8.94-1.57,2.04-2.24,3.08-.7.54-1.61,1.44-2.04,2.21-.64,1.1-3.28,5.75-4.48,6.42h-.03s.03,0,.03.03h-.07c-.17.13-.57.37-.77.37-.27,0-.33-.23-.33-.47l-.03-.07c.1-.5.33-.9.47-1.37,2.81-2.74,4.48-6.59,6.66-9.84-.33,0-1.54,0-1.54-.47-.07-.03-.13-.1-.13-.2,0-.54.84-1,1.27-1.24.57.07,1.74-.07,2.21-.4.5-1.2,1.34-2.38,1.94-3.55.4-.77.9-1.51,1.34-2.31.17-.33.3-.84.5-1.14.74-1.07,1.67-2.01,2.44-3.04,1.17-1.57,2.58-3.28,3.41-5.05.17-.37.33-.77.54-1.14.1-.17.43-.27.6-.3l.27.17c1.34,0,3.25,2.41,3.25,3.68,0,1-.44,2.94-.67,3.98.13.84.33,1.87.33,2.71,0,.94-.8,2.81-.8,3.88.64,0,1.14-.43,1.84-.47.3.07.47.8.47,1.07,0,.77-1.47,1-1.97,1.2l-.5.54c-.67.33-.84,3.85-.84,4.58,0,.23.07.5-.1.7-.13.43-.17.87-.17,1.3,0,1.64-.13,3.25-.13,4.88,0,1.44.5,2.51.5,3.71,0,.44-.2,1.41.2,1.71,0,.67-.13,1.37-.23,2.04-.27.23-1.67.4-2.04.4-.9,0-1.37-.4-1.64-1.27Zm-6.09-18.2c.7,0,1.37-.37,2.04-.37,1.24,0,2.24-.33,3.45-.67.3-3.78,1.84-7.86,1.84-11.51,0-.27.03-.37-.17-.57-.33.5-1.3,2.07-1.64,2.44-.23.27-.5.54-.67.87-.8,1.54-5.05,9.1-5.05,9.8h.2Z"/>
        <path class="cls-6" d="m371.17,388.54v-.03c0-.17-.97-1.2-1.14-1.47-.3-.5-3.01-2.51-3.65-2.88-.54-.3-1.67-.84-1.84-1.51l.07-.1c0-.17-.54-.47-.6-.87-.94-.74-1.51-1.37-1.51-2.68,0-.5.07-.74.5-1.04.13-.2.97-.77,1.24-.97.5-1.57,2.24-2.04,3.71-2.04.64,0,2.91-.03,3.28.44l.33.03c.08.05.15.18.2.34.08-.19.15-.38.22-.54.24-.59.45-1.19.65-1.79-.07-.16-.14-.29-.2-.38,0-.1-.07-.17-.27-.5,0-.17-.6-.77-.74-.97-.44-.74-2.71-1.14-3.55-1.14l-.23.07c-.33-.03-.64.07-.97.07-2.04,0-3.91.9-5.49,2.07-1.04.77-1.81,1.14-2.38,2.44-.2-.03-.4.64-.4.84,0,.03.03.17.07.2l.07-.07c0,.17,0,.27-.03.33.17.77-.37.1-.47.84l-.07-.1c-.1,0-.13.27-.13.37,0,.2.2,1.4.4,1.4.1,0,.17-.13.2-.23v.07c0,.7.07,1.51.2,2.21l-.07.37c.1.64,1.34,2.27,1.74,2.91l.23.13c.47.47,1.2.84,1.87,1.2,1.1.6,1.84,1.77,2.78,2.58.64.57,1.2,1.04,1.61,1.81.7.64,1,1.61,1,2.51,0,1.57-.97,2.81-1.77,4.01-.5.77-.5,1.67-1.44,2.17-1.17.64-2.48,1.04-3.78,1.27-.1-.03-.23-.07-.37-.07-.07,0-1.07.33-1.2.37-.6-.17-1.27-.23-1.81-.57h-.13c-1.47,0-1.67-1.14-1.67-2.31,0-2.51,1.71-2.41,1.97-3.18.07-.23.67-.27.77-.54.2-.57.64-.4.84-.74,0-.57-1.07-.74-1.47-.74-2.44,0-3.51,4.18-3.51,6.09,0,2.88,1.84,5.09,4.68,5.65,1.37.27,2.94.27,4.35.27.67,0,1.37-.33,2.04-.43.97-.54,1.87-.44,3.01-1.17,2.68-1.74,3.81-2.48,4.58-5.65.03-.1.07-.2.03-.33.1-.3.13-.6.23-.9-.1-.07-.1-.2-.1-.3,0-.33.07-.64.03-.97l.03-.07c0-.23-.13-.3-.07-.64-.03-.1-.03-.17-.03-.27,0-.07.17-.03.2-.17-.13-.67-.47-2.48-.84-2.94-.3-.37-1.14-1.37-1.24-1.77Z"/>
        <path class="cls-6" d="m390.18,395.55c-.94,1-2.02,1.87-3.11,2.36-.57.27-1.67,1.14-2.31,1.14-.4,0-.74-.4-1.07-.6l-.3-.13c-1.97-.37-2.94-2.41-3.31-4.22-.13-.64-.07-1.37-.07-2.01,0-.6-.07-1.2-.07-1.77,0-.5.03-1,.03-1.51,0-.74.3-1.51.47-2.21.1-.37.1-.7.13-1.1.27-2.38,2.04-6.16,3.41-8.13.03-.2.1-.37.17-.54.7-.7,1.37-2.07,1.97-2.91.7-.43,1.44-1.77,2.27-1.77.33,0,.67.1,1.04.1.74,0,2.51.84,2.51,1.71,0,1.07-2.51.7-2.51,2.17,0,.74.57,2.64,1.51,2.64h.1c.37-.2.94-.23,1.17-.64-.03-.07-.03-.13-.03-.2,0-1,1.2-2.51,1.2-4.02,0-.64-.17-1.3-.57-1.81-.33-.43-.77-.47-1.27-.6-1.14-.33-1.51-.7-2.94-.94-.4-.07-.8-.13-1.24-.13-.37,0-.74.1-1.1.1-1.54,0-2.88.57-4.18,1.34-5.42,3.18-7.73,12.11-7.73,18.03,0,3.35.57,7.19,3.45,9.37,1.17.87,3.21,1.77,4.68,1.77,2.14,0,3.35-.57,5.05-1.81.27-.2.54-.43.84-.64.99-.63,1.69-1.22,2.44-2.11.03-.08.05-.17.07-.25-.28-.19-.52-.43-.71-.71Z"/>
        <path class="cls-6" d="m258.42,398.11c-.88.76-1.8,1.4-2.74,1.82-.73.35-2.16,1.47-2.98,1.47-.52,0-.95-.52-1.38-.78l-.39-.17c-2.55-.47-3.8-3.11-4.28-5.44-.17-.82-.09-1.77-.09-2.59,0-.78-.09-1.55-.09-2.29,0-.65.04-1.3.04-1.94,0-.95.39-1.94.6-2.85.13-.48.13-.91.17-1.43.35-3.07,2.63-7.95,4.4-10.49.04-.26.13-.48.22-.69.91-.91,1.77-2.68,2.55-3.76.91-.56,1.86-2.29,2.94-2.29.43,0,.86.13,1.34.13.95,0,3.24,1.08,3.24,2.2,0,1.38-3.24.91-3.24,2.81,0,.95.73,3.41,1.94,3.41h.13c.48-.26,1.21-.3,1.51-.82-.04-.09-.04-.17-.04-.26,0-1.3,1.55-3.24,1.55-5.18,0-.82-.22-1.68-.73-2.33-.43-.56-.99-.6-1.64-.78-1.47-.43-1.94-.91-3.8-1.21-.52-.09-1.04-.17-1.6-.17-.48,0-.95.13-1.43.13-1.99,0-3.71.73-5.4,1.73-7,4.1-9.97,15.63-9.97,23.27,0,4.32.73,9.28,4.45,12.09,1.51,1.12,4.15,2.29,6.05,2.29,2.76,0,4.32-.73,6.52-2.33.26-.2.53-.42.82-.63.37-.55.67-1.15,1.03-1.7.1-.4.2-.81.29-1.22Z"/>
        <path class="cls-6" d="m412.64,374.41c-.17-.44-.3-.87-.54-1.31-.64-1.2-2.91-2.61-4.18-3.01,0-.03.03-.07.03-.1,0-.54-2.04-.94-2.48-.94-.5,0-.97-.33-1.51-.33-.57,0-1.41.2-2.04.64-1.54.54-2.07,1.41-2.07,3.04,0,.43,0,.94.1,1.34-1.2.43-2.31,1.27-3.21,2.21-.27,0-.47.1-.74.2-1.74,1.94-3.61,6.79-4.08,9.33-.3,1.64-.5,3.48-.5,5.15,0,.77.18,1.94.43,2.98.08.15.12.32.16.49.02.11.04.23.06.34,0,.04.02.08.03.12.08.25.15.49.23.68,1.54,3.98,4.48,7.53,9.07,7.53.27,0,.54-.07.74-.2.94,0,1.84-.3,2.51-.94.44-.07,1.3-.64,1.51-1,.8-.7,2.27-2.78,2.81-3.78.27-.54,1.47-2.78,1.51-3.25.1-.13.2-.37.13-.47.47-.84.8-1.81,1.17-2.68.03.01.06.02.1.04.02-.06.05-.12.08-.19v-.36c0-.27.07-.52.19-.75,0,0-.02,0-.03-.01l.57-2.58c.1-.5.33-.97.37-1.47.5-.77.67-5.79.67-6.96,0-1.3-.57-2.58-1.07-3.78Zm-1.78,12.52c-.02,1.48-.31,2.95-.95,4.31-.09.18-.19.35-.31.5-.26.67-.56,1.33-.81,1.97-.87,2.14-2.78,6.76-5.62,6.76-1.47,0-1.91-1.27-2.11-1.27-1.77-2.11-2.28-4.85-2.28-7.53,0-2.14.5-4.15,1-6.22.17-.7.3-1.57.6-2.24.8-1.71,1.27-3.21,1.74-5.05,0,.01,0,.03.01.04.54-1.78,1.57-3.4,3.05-4.66.04-.33.06-.61.08-.74.17-.77.9-1.87,1.77-1.87.1,0,.3.03.37.07.1.07.17.2.2.3.5.94,1.87,1.07,2.54,1.87.17.2.33.54.57.67,1.07,1.61,1.1,4.62,1.1,6.46,0,2.31-.53,4.43-.98,6.63Z"/>
      </g>
      <text class="cls-2" transform="translate(259.15 396.1)"><tspan x="0" y="0">H</tspan></text>
    </g>
    <text/>
    <g>
      <path class="cls-6" d="m296.28,425.95c-.18.18-.39.29-.63.34-.24.05-.49.03-.75-.06-.24-.08-.46-.19-.69-.34-.22-.15-.45-.35-.69-.59-.18-.18-.35-.37-.53-.56-.18-.2-.28-.3-.3-.33.35-.34.69-.65,1-.95.31-.3.61-.59.89-.86.53-.52.95-.94,1.26-1.25.31-.31.47-.47.48-.48.03.02.13.12.31.29.18.17.35.33.51.5.18.19.34.37.47.55.13.18.23.35.29.5.1.23.13.45.1.66-.03.21-.13.41-.31.58-.19.18-.41.29-.67.31-.26.02-.49-.02-.69-.12l-.03.03c.11.14.2.29.27.45s.1.33.1.51c0,.15-.03.3-.09.43-.06.13-.15.26-.29.4Zm-.47-.45c.09-.09.16-.19.2-.29.04-.1.06-.22.07-.35,0-.12-.03-.26-.1-.4-.07-.15-.16-.28-.29-.41-.1-.1-.18-.18-.24-.24-.06-.06-.1-.1-.12-.12l.28-.36c.14.13.27.23.4.31.13.07.26.12.39.15.13.02.26.02.39-.02.13-.03.25-.1.36-.2.11-.11.18-.23.21-.36.03-.13.02-.27-.03-.41-.04-.12-.11-.24-.2-.38s-.21-.27-.34-.4c-.08-.08-.16-.16-.23-.23-.07-.07-.12-.11-.14-.13-.27.25-.55.53-.85.82-.3.29-.52.5-.65.63-.31.31-.62.61-.94.92-.31.31-.48.48-.5.5.03.04.08.09.14.15.06.06.11.12.17.18.2.21.4.39.6.55.2.16.39.26.58.32.16.05.31.05.45.02.14-.03.28-.11.4-.23Z"/>
      <path class="cls-6" d="m300.26,426.78c-.13-.06-.34-.15-.63-.25-.29-.1-.64-.2-1.04-.3-.02.02-.1.12-.25.29-.15.17-.28.34-.41.49-.19.23-.41.51-.67.83-.26.32-.4.5-.43.53l-.46-.38s.12-.14.28-.32.42-.5.79-.95c.15-.18.36-.44.63-.77s.52-.64.75-.93l.46.38-.37.45h0c.32.06.63.13.92.22.29.09.52.17.67.24l-.25.48Z"/>
      <path class="cls-6" d="m302.38,429.74c-.35.52-.64.95-.87,1.27-.22.33-.34.5-.36.53-.02-.01-.13-.07-.31-.17-.18-.1-.41-.25-.69-.44-.17-.12-.34-.25-.49-.4-.15-.15-.27-.3-.36-.44-.12-.19-.18-.39-.19-.59s.04-.4.17-.59c.14-.2.31-.33.54-.39.22-.06.47-.06.75,0,.18.04.39.11.65.22.26.11.54.25.85.43.1-.17.15-.33.15-.49,0-.15-.05-.3-.14-.45-.07-.1-.15-.2-.25-.29s-.23-.19-.38-.29c-.09-.06-.18-.12-.25-.16-.07-.04-.16-.1-.28-.17l.33-.38s.1.06.19.12c.1.06.23.14.39.25.25.17.45.34.61.53.16.18.26.38.31.58.05.19.04.39,0,.59-.05.2-.18.46-.38.76Zm-1,.43c.05-.07.11-.16.18-.27.07-.11.16-.24.25-.38-.1-.06-.27-.15-.52-.27s-.48-.21-.68-.25c-.15-.04-.3-.04-.45-.01-.15.03-.27.1-.36.23-.1.14-.14.28-.12.42.02.14.08.28.18.42.08.11.18.21.29.31.11.1.24.2.38.29.04.03.09.06.16.1s.13.08.2.12c0-.01.06-.08.14-.21.08-.12.2-.29.34-.5Z"/>
      <path class="cls-6" d="m305.08,433.7s-.2-.11-.56-.31c-.36-.2-.63-.34-.81-.44-.22-.12-.49-.26-.81-.43-.32-.17-.48-.26-.5-.27l.06-.37c.37-.17.87-.39,1.5-.67.63-.28,1.26-.56,1.91-.86h0c-.1-.06-.19-.11-.29-.17-.1-.05-.19-.11-.29-.16-.21-.11-.49-.26-.82-.43-.33-.18-.51-.27-.53-.28l.23-.42s.2.11.55.3c.34.19.55.3.63.34.16.08.4.21.73.39.33.18.51.27.54.29v.41c-.64.27-1.33.58-2.08.92-.75.34-1.19.54-1.32.6h0c.09.05.2.11.33.19.14.07.28.15.44.24.45.24.78.42.99.53.21.11.32.16.33.17l-.23.43Z"/>
      <path class="cls-6" d="m306.76,434.47l-.55-.24s.12-.26.31-.68c.19-.42.35-.76.47-1.04.11-.24.22-.5.35-.79s.27-.62.43-1.01l.55.24c-.15.33-.3.64-.43.93s-.25.55-.35.78c-.24.54-.43.98-.57,1.31-.14.33-.21.5-.22.51Zm1.89-4.18l-.61-.27.27-.6.61.27-.27.6Z"/>
      <path class="cls-6" d="m308.85,435.31l-.56-.22s.15-.37.41-1.04c.26-.66.47-1.21.64-1.65.11-.28.24-.64.41-1.07.16-.43.34-.92.54-1.45l.56.21c-.14.36-.31.78-.5,1.26-.19.48-.34.88-.47,1.21-.27.72-.51,1.35-.71,1.89-.2.54-.31.82-.32.85Z"/>
      <path class="cls-6" d="m310.97,436.05l-.57-.19s.1-.27.24-.71c.15-.44.26-.8.36-1.08.08-.25.17-.52.26-.82.1-.3.2-.65.33-1.05l.57.19c-.12.35-.23.67-.33.97-.1.3-.19.57-.27.81-.18.56-.33,1.02-.43,1.36-.1.34-.16.52-.16.53Zm1.45-4.36l-.64-.21.2-.62.64.21-.2.62Z"/>
      <path class="cls-6" d="m315.67,435.07c-.15.61-.27,1.11-.37,1.49-.1.38-.15.59-.16.62-.02,0-.14-.02-.35-.06-.21-.03-.47-.09-.8-.17-.2-.05-.4-.12-.6-.21-.2-.09-.36-.18-.49-.29-.17-.14-.3-.3-.39-.49s-.1-.39-.04-.61c.06-.23.18-.42.37-.56.19-.14.42-.23.7-.27.18-.03.41-.03.69-.02.28.01.6.05.94.1.03-.2.02-.37-.03-.51-.05-.14-.15-.27-.29-.37-.1-.07-.21-.13-.34-.18-.13-.05-.28-.1-.46-.14-.11-.03-.21-.05-.28-.06-.08-.01-.19-.03-.32-.06l.18-.48s.11.02.22.04c.11.02.26.05.45.1.29.07.54.17.76.28.21.12.38.26.5.43.11.16.18.35.2.55.03.21,0,.49-.09.85Zm-.78.75c.02-.08.05-.19.08-.32.03-.13.07-.28.11-.44-.11-.02-.3-.05-.59-.08s-.52-.03-.72,0c-.15.02-.29.07-.42.14s-.22.19-.26.34c-.04.17-.03.31.04.44.07.12.17.23.32.33.11.07.24.13.38.19s.29.1.46.14c.05.01.11.03.18.04.07.01.15.03.23.05,0-.02.02-.1.06-.24.04-.15.09-.34.15-.59Z"/>
      <path class="cls-6" d="m319.94,437.95l-.6-.09c.01-.07.05-.3.11-.7.06-.39.1-.64.11-.73.02-.13.05-.32.08-.58.03-.25.06-.44.07-.56.03-.29,0-.5-.08-.65-.09-.14-.25-.23-.51-.26-.15-.02-.35,0-.59.05-.24.06-.48.14-.74.25,0,.03-.03.18-.07.45s-.08.52-.11.74c-.04.29-.09.64-.14,1.06-.05.41-.08.63-.08.65l-.6-.08s.03-.17.07-.46c.05-.29.11-.72.19-1.29.04-.26.08-.57.13-.93.05-.35.1-.73.15-1.13l.59.08-.07.43h0c.38-.14.69-.24.94-.29.25-.05.45-.06.6-.04.32.05.57.18.73.41.17.23.22.52.17.87-.04.32-.09.59-.12.82-.04.23-.06.42-.09.56-.03.23-.07.52-.11.86-.04.34-.07.52-.07.54Z"/>
      <path class="cls-6" d="m326.45,436.78c0,.26-.06.49-.19.69-.12.2-.29.35-.5.48-.19.11-.41.19-.66.25-.25.06-.52.08-.82.08-.16,0-.33,0-.5-.02-.17-.01-.27-.02-.3-.02l-.03-.55s.13.02.3.03c.16.01.35.02.57.02.13,0,.31-.02.52-.05.21-.03.38-.08.49-.13.15-.07.27-.16.35-.26.08-.1.12-.24.12-.39,0-.17-.04-.31-.12-.43-.08-.12-.21-.23-.4-.34-.12-.07-.27-.15-.46-.24-.19-.09-.36-.18-.51-.28-.26-.16-.44-.33-.55-.52-.11-.19-.16-.39-.16-.62,0-.23.05-.44.15-.61.1-.17.23-.32.39-.44.16-.12.36-.21.6-.27.24-.06.5-.09.78-.09.16,0,.32,0,.48.02.16.01.25.02.28.02l.05.55s-.12-.01-.28-.03c-.16-.02-.36-.02-.6-.03-.14,0-.29.01-.44.05-.15.03-.28.08-.4.14-.1.06-.19.14-.26.24-.07.1-.11.23-.11.36,0,.12.04.24.11.36.07.12.21.24.42.36.1.06.24.14.41.22.17.08.34.17.5.27.25.15.44.32.57.52.13.19.19.42.19.67Z"/>
      <path class="cls-6" d="m329.94,437.53l-.04.49s-.06,0-.13.02c-.07,0-.13.01-.18.02-.52.04-.92-.05-1.2-.24-.28-.2-.44-.52-.47-.97-.02-.28-.04-.58-.06-.9-.02-.32-.04-.72-.08-1.2l-.64.04-.03-.44.67-.05-.06-.9.55-.04.06.9,1.36-.09.03.44-1.36.09c0,.05.01.21.03.48.01.26.03.46.03.59,0,.11.02.24.03.39.01.15.02.34.04.55.02.33.13.56.31.69.19.13.47.19.84.16.05,0,.1,0,.16-.01.06,0,.1,0,.12-.01Z"/>
      <path class="cls-6" d="m333.49,435.35c.09.62.16,1.13.21,1.52.05.39.08.6.09.63-.02,0-.14.03-.35.08s-.47.09-.8.14c-.21.03-.42.04-.63.03-.21,0-.4-.04-.56-.08-.21-.06-.4-.17-.54-.31-.15-.14-.24-.33-.27-.55-.03-.24,0-.46.13-.65.12-.2.31-.37.55-.51.15-.09.36-.18.63-.28.26-.09.57-.18.91-.26-.04-.19-.12-.35-.22-.46-.1-.11-.24-.19-.41-.23-.12-.03-.25-.04-.38-.04s-.3.01-.48.04c-.11.02-.21.03-.29.05-.08.02-.19.04-.32.07v-.51s.1-.02.21-.05c.11-.02.26-.05.46-.08.3-.04.57-.05.81-.02.24.03.45.1.62.22.16.11.29.26.39.44s.18.45.23.82Zm-.45.99c-.01-.09-.03-.19-.05-.32-.02-.13-.04-.28-.07-.45-.11.02-.3.07-.57.15-.27.08-.49.17-.67.27-.13.07-.25.17-.34.29-.09.12-.13.26-.11.42.02.17.09.3.2.39.11.09.25.15.42.18.13.03.27.04.42.03.15,0,.31-.02.48-.04.05,0,.11-.02.18-.03.07-.01.15-.03.23-.04,0-.02-.01-.1-.03-.25-.02-.15-.05-.35-.08-.6Z"/>
      <path class="cls-6" d="m336,437.06l-.59.14s-.08-.38-.22-1c-.14-.62-.29-1.26-.44-1.92-.06-.28-.15-.63-.25-1.06-.1-.43-.22-.91-.35-1.46l.59-.14c.09.44.21.95.34,1.53s.21.92.24,1.03c.06.25.19.79.38,1.6.19.81.29,1.24.3,1.28Zm2.64-.69l-.28.4c-.68-.43-1.27-.8-1.8-1.12-.52-.31-.81-.49-.87-.52h0c.05-.08.25-.4.6-.98.35-.58.63-1.05.85-1.42l.44.29c-.23.35-.47.72-.72,1.11-.25.39-.41.63-.47.73h0c.9.6,1.65,1.09,2.24,1.49Z"/>
      <path class="cls-6" d="m341.85,433.26l-2.62.84c.08.26.22.47.39.65.18.18.4.3.66.37.17.04.35.06.54.05.19-.01.42-.06.67-.14.14-.04.26-.09.38-.13.11-.04.18-.07.21-.08l.09.5s-.08.03-.19.08c-.11.04-.23.08-.38.13-.39.12-.74.18-1.06.18-.32,0-.6-.07-.84-.19-.2-.1-.4-.24-.58-.44-.18-.19-.32-.43-.41-.71-.09-.28-.13-.54-.12-.79.01-.25.07-.5.17-.74.09-.21.23-.39.41-.55.18-.16.39-.27.61-.35.22-.07.43-.1.63-.09.2.01.38.07.55.16.19.11.36.26.51.47.15.2.27.46.38.78Zm-.69-.22c-.14-.29-.31-.49-.53-.61-.22-.12-.47-.13-.74-.04-.27.09-.47.25-.59.48-.13.23-.18.51-.15.82l2.01-.65Z"/>
      <path class="cls-6" d="m346.62,433.52l-.55.24c-.03-.07-.11-.28-.26-.64s-.24-.59-.29-.7c-.05-.12-.13-.3-.23-.54-.1-.24-.18-.41-.23-.52-.12-.26-.26-.44-.4-.51-.15-.08-.34-.06-.57.04-.13.06-.29.17-.46.34s-.35.37-.52.61l1.17,2.69-.55.24c-.04-.09-.19-.46-.46-1.1-.27-.64-.5-1.17-.67-1.59-.12-.27-.26-.61-.44-1.02-.18-.41-.38-.88-.62-1.41l.55-.24.84,2h0c.25-.33.47-.57.65-.74.18-.16.35-.28.5-.34.3-.13.58-.14.84-.03.26.11.46.33.6.66.13.29.23.55.32.76s.16.39.22.52c.09.21.2.46.32.73.12.27.21.46.25.56Z"/>
      <path class="cls-6" d="m350.19,429.43c.14.26.23.53.27.82.04.29.02.56-.06.82-.07.22-.17.42-.31.59-.14.17-.32.32-.55.45-.21.12-.43.19-.66.22-.23.03-.45.02-.68-.04-.26-.07-.5-.2-.72-.38-.22-.19-.41-.41-.56-.68-.14-.26-.23-.51-.27-.77-.04-.26-.02-.52.05-.78.06-.24.17-.45.32-.65.15-.19.34-.35.56-.47.23-.13.46-.21.69-.23s.46,0,.69.07c.27.08.5.21.7.38s.38.39.52.65Zm-.52.32c-.12-.21-.26-.39-.44-.55-.18-.16-.38-.27-.59-.33-.13-.04-.27-.04-.42-.02-.14.02-.28.07-.41.14-.15.09-.27.18-.36.3-.09.11-.15.25-.19.41-.05.19-.06.39-.02.61.04.22.11.44.22.64.13.23.28.42.45.57.17.15.38.25.61.31.13.03.26.03.4.01.14-.02.27-.07.39-.14.14-.08.26-.17.35-.29.09-.12.16-.25.2-.39.06-.2.07-.41.03-.63-.03-.22-.11-.43-.22-.63Z"/>
      <path class="cls-6" d="m354.88,428.54l-.48.34-.26-.36h0c-.08.2-.19.42-.33.68-.15.25-.32.45-.53.6-.29.2-.57.28-.85.22s-.53-.24-.75-.54c-.12-.17-.26-.36-.41-.6-.16-.23-.27-.4-.35-.5-.13-.19-.3-.42-.5-.69-.2-.27-.31-.43-.34-.46l.49-.35s.12.18.31.45c.19.27.34.49.45.65.1.14.23.32.38.53.15.21.26.36.32.45.18.24.35.39.51.45.16.06.33.02.51-.11.18-.13.35-.32.5-.58.15-.26.25-.46.3-.61-.02-.02-.1-.14-.24-.35-.14-.21-.32-.46-.54-.77-.15-.22-.34-.48-.56-.78-.22-.3-.34-.46-.36-.49l.49-.35s.11.15.24.35c.14.2.37.54.71,1.02.19.27.36.5.5.7.15.2.4.56.77,1.07Z"/>
      <path class="cls-6" d="m357.07,425.23c.12.14.2.3.23.47s.02.34-.04.51c-.05.17-.14.35-.27.53-.13.18-.29.35-.48.52-.09.08-.19.16-.3.24-.11.08-.17.12-.18.13l-.34-.36s.09-.07.21-.16c.12-.09.24-.19.36-.29.07-.06.15-.14.24-.24.1-.1.16-.2.21-.29.06-.13.08-.24.08-.34s-.05-.19-.12-.28c-.07-.08-.14-.12-.23-.14s-.18-.01-.29,0c-.12.02-.27.05-.46.11-.18.06-.34.1-.48.12-.2.03-.38.03-.54-.02-.16-.05-.3-.14-.43-.28-.12-.14-.2-.3-.22-.48s0-.36.07-.54c.06-.16.15-.31.27-.45.12-.14.24-.27.37-.38.12-.1.21-.18.29-.24.08-.06.12-.1.13-.11l.36.35s-.08.06-.19.14c-.11.08-.23.18-.35.29-.09.08-.17.16-.23.24-.07.09-.11.17-.15.24-.05.11-.06.22-.04.31.02.09.05.16.1.22.07.08.15.12.25.13.1.01.2,0,.3-.01.12-.02.27-.06.46-.12.19-.06.33-.09.43-.11.21-.03.39-.03.55.01.16.04.3.13.42.28Z"/>
      <path class="cls-6" d="m359.35,421.51l-1.88,2.01c.2.18.42.31.66.38.24.07.49.07.76,0,.17-.04.33-.12.5-.22.16-.11.33-.25.51-.45.1-.11.19-.21.26-.3.08-.09.12-.15.14-.17l.32.4s-.05.07-.13.16c-.07.09-.16.19-.27.3-.28.3-.56.52-.84.67-.28.15-.56.23-.82.24-.23.01-.47-.02-.72-.1-.26-.08-.49-.22-.71-.42-.21-.2-.37-.41-.49-.63-.11-.22-.18-.46-.21-.73-.02-.23,0-.45.09-.68.08-.23.21-.43.37-.6.16-.17.33-.3.51-.39.18-.08.36-.13.56-.13.22,0,.45.05.67.16.23.1.46.27.71.49Zm-.71.14c-.26-.19-.51-.28-.76-.27-.25,0-.47.11-.67.32-.19.21-.29.44-.29.71,0,.26.09.53.27.79l1.44-1.55Z"/>
    </g>
    <g>
      <path class="cls-8" d="m290.89,362.94c7.59-11.56,20.66-19.2,35.52-19.2s27.93,7.64,35.52,19.2h2.91c-7.91-12.93-22.16-21.57-38.43-21.57s-30.52,8.63-38.43,21.57h2.91Z"/>
      <path class="cls-8" d="m363.97,406.14c-7.14,13.41-21.32,22.52-37.57,22.52s-30.36-9.13-37.5-22.54h-2.97c7.31,14.98,22.69,25.3,40.47,25.3s33.13-10.26,40.44-25.24l-2.87-.03Z"/>
    </g>
  </g>
</svg>