<?xml version="1.0" encoding="UTF-8"?>
<svg id="Layer_2" data-name="Layer 2" xmlns="http://www.w3.org/2000/svg" xmlns:xlink="http://www.w3.org/1999/xlink" viewBox="0 0 161.33 249.29">
  <defs>
    <style>
      .cls-1 {
        clip-path: url(#clippath);
      }

      .cls-2 {
        fill: none;
      }

      .cls-2, .cls-3, .cls-4 {
        stroke-width: 0px;
      }

      .cls-3 {
        fill: #76a5af;
      }

      .cls-4 {
        fill: #231f20;
      }
    </style>
    <clipPath id="clippath">
      <path class="cls-2" d="m31.11,49.83v168.16h132.21V49.83H31.11Zm20.02,124.07c.1-2.14.17-4.36.2-6.65,4-2.15,7.74-4.03,10.97-5.65,5.8-2.89-1.64,3.88-11.17,12.29Z"/>
    </clipPath>
  </defs>
  <g id="Title_Page" data-name="Title Page">
    <g>
      <path class="cls-3" d="m33.11,208.09c.53.08,1.05.13,1.55.17.5.04,1.24.06,2.23.06,10.15,0,15.3-14.27,15.45-42.81.08-7.17.15-12.78.23-16.83l.46-31.25c.08-6.71.13-13.24.17-19.57.04-6.33.06-13.2.06-20.61,0-6.56-1.22-11.1-3.66-13.62-2.44-2.52-5.35-3.78-11.61-3.78h-.51c.64-.86,1.53-2.22,2.54-3.46,1.66-2.04,3.44-3.92,3.45-3.93,4.79.2,1.83.03,6.53.18,4.69.15,9.44.23,14.25.23,5.34,0,11.91-.17,19.69-.51,7.78-.34,12.86-.51,15.23-.51,15.72,0,28.14,3.49,37.26,10.47,9.12,6.98,13.68,16.39,13.68,28.22,0,8.32-2.23,15.51-6.7,21.58-4.46,6.07-11.85,11.92-22.15,17.57,13.43,2.59,23.47,7.17,30.11,13.74,6.64,6.56,9.96,15.23,9.96,25.99,0,13.97-5.53,25.22-16.6,33.77-11.07,8.55-25.83,12.82-44.3,12.82-3.36,0-9.66-.19-18.89-.57-9.24-.38-16.87-.57-22.89-.57-2.52,0-6.01.08-10.47.23-4.46.15-9.48.38-15.05.69v-7.67Zm40.52-7.44c4.43,1.3,8.78,2.27,13.05,2.92,4.27.65,8.43.97,12.48.97,12.52,0,22.21-3.05,29.08-9.16,6.87-6.1,10.3-14.61,10.3-25.53,0-11.6-3.85-20.2-11.56-25.81-7.71-5.61-19.54-8.41-35.49-8.41-2.6,0-5.21.02-7.84.06-2.63.04-6.05.17-10.25.4,0,3.21-.04,7.92-.11,14.14-.08,6.22-.11,10.78-.11,13.68,0,4.73.04,9.75.11,15.05.08,5.3.19,12.53.34,21.69Zm-.23-75.21c1.75.15,3.64.25,5.67.29,2.02.04,5.05.06,9.1.06,4.35,0,8.37-.07,12.08-.23,3.7-.15,7.27-.42,10.7-.8,5.57-3.97,9.77-8.45,12.59-13.45,2.82-5,4.24-10.51,4.24-16.54,0-9.69-3.09-17.34-9.27-22.95-6.18-5.61-14.65-8.41-25.41-8.41-2.37,0-5.09.15-8.18.46-3.09.31-6.58.76-10.47,1.37-.23,10.23-.44,22.09-.63,35.6-.19,13.51-.33,21.71-.4,24.61Z"/>
      <path class="cls-4" d="m107.77.58c-5.41-3.8-14.54,12.23-21.54,14.39-23.04,14.12-50.26,27.81-65.15,56.94-12.44,24.32-2.76,57.11,26.61,39.82-.57-.47-9.79,1.39-13.34.07-9.33-3.38-11.02-14.82-9.77-23.91C31.25,54.62,64.59,32,90.83,14.69l.18.3c-21.7,33.53-20.05,77.29-20.6,115.69-1.29,33.86,1.91,111.59-43.79,107.16-22.72-2.2-10.22-29.02,1.82-43,8-9.28,44.89-38.73,33.86-33.24-18.9,9.41-54.79,27.85-61.49,57.77-8.05,35.94,46.5,38.01,61.87,14.15,22.73-35.3,16.79-94.28,17.79-134.52,1.66-23.65-1.8-70.64,14.97-87.05,3.8-3.08,12.81-5.8,12.33-11.38Z"/>
      <g class="cls-1">
        <path class="cls-3" d="m33.11,208.09c.53.08,1.05.13,1.55.17.5.04,1.24.06,2.23.06,10.15,0,15.3-14.27,15.45-42.81.08-7.17.15-12.78.23-16.83l.46-31.25c.08-6.71.13-13.24.17-19.57.04-6.33.06-13.2.06-20.61,0-6.56-1.22-11.1-3.66-13.62-2.44-2.52-5.35-3.78-11.61-3.78h-.51c.64-.86,1.53-2.22,2.54-3.46,1.66-2.04,3.44-3.92,3.45-3.93,4.79.2,1.83.03,6.53.18,4.69.15,9.44.23,14.25.23,5.34,0,11.91-.17,19.69-.51,7.78-.34,12.86-.51,15.23-.51,15.72,0,28.14,3.49,37.26,10.47,9.12,6.98,13.68,16.39,13.68,28.22,0,8.32-2.23,15.51-6.7,21.58-4.46,6.07-11.85,11.92-22.15,17.57,13.43,2.59,23.47,7.17,30.11,13.74,6.64,6.56,9.96,15.23,9.96,25.99,0,13.97-5.53,25.22-16.6,33.77-11.07,8.55-25.83,12.82-44.3,12.82-3.36,0-9.66-.19-18.89-.57-9.24-.38-16.87-.57-22.89-.57-2.52,0-6.01.08-10.47.23-4.46.15-9.48.38-15.05.69v-7.67Zm40.52-7.44c4.43,1.3,8.78,2.27,13.05,2.92,4.27.65,8.43.97,12.48.97,12.52,0,22.21-3.05,29.08-9.16,6.87-6.1,10.3-14.61,10.3-25.53,0-11.6-3.85-20.2-11.56-25.81-7.71-5.61-19.54-8.41-35.49-8.41-2.6,0-5.21.02-7.84.06-2.63.04-6.05.17-10.25.4,0,3.21-.04,7.92-.11,14.14-.08,6.22-.11,10.78-.11,13.68,0,4.73.04,9.75.11,15.05.08,5.3.19,12.53.34,21.69Zm-.23-75.21c1.75.15,3.64.25,5.67.29,2.02.04,5.05.06,9.1.06,4.35,0,8.37-.07,12.08-.23,3.7-.15,7.27-.42,10.7-.8,5.57-3.97,9.77-8.45,12.59-13.45,2.82-5,4.24-10.51,4.24-16.54,0-9.69-3.09-17.34-9.27-22.95-6.18-5.61-14.65-8.41-25.41-8.41-2.37,0-5.09.15-8.18.46-3.09.31-6.58.76-10.47,1.37-.23,10.23-.44,22.09-.63,35.6-.19,13.51-.33,21.71-.4,24.61Z"/>
      </g>
    </g>
  </g>
</svg>